<?xml version="1.0" standalone="no"?>
<!DOCTYPE svg PUBLIC "-//W3C//DTD SVG 1.1//EN" "http://www.w3.org/Graphics/SVG/1.1/DTD/svg11.dtd" >
<svg xmlns="http://www.w3.org/2000/svg">
<metadata>Generated by IcoMoon</metadata>
<defs>
<font id="controls" horiz-adv-x="512">
<font-face units-per-em="512" ascent="480" descent="-32" />
<missing-glyph horiz-adv-x="512" />
<glyph unicode="&#x20;" d="" horiz-adv-x="256" />
<glyph unicode="&#xe000;" d="M392.532 434.488c22 0 39.824-17.826 39.824-39.824 0-21.994-17.823-39.82-39.824-39.82-6.178 0-12.044 1.411-17.268 3.927l-1.374 0.706-143.684-164.299 63.716-72.688 1.701 0.868c5.223 2.523 11.089 3.934 17.268 3.934 5.488 0 10.733-1.111 15.488-3.134l0.933-0.421 74.056 80.687-0.343 0.59c-3.066 5.654-4.798 12.123-4.798 18.988 0 21.994 17.823 39.82 39.824 39.82s39.82-17.826 39.82-39.82c0-22-17.82-39.824-39.82-39.824-6.178 0-12.044 1.411-17.268 3.934l-1.021 0.512-73.257-79.81 0.456-0.702c3.646-6.010 5.757-13.075 5.757-20.642 0-22-17.82-39.824-39.82-39.824s-39.824 17.823-39.824 39.824c0 6.178 1.411 12.044 3.934 17.268l0.824 1.623-62.739 71.559-61.356-70.156 0.749-1.299c3.060-5.666 4.802-12.135 4.802-19 0-22-17.826-39.824-39.824-39.824-21.994 0-39.82 17.823-39.82 39.824s17.826 39.824 39.82 39.824c6.178 0 12.051-1.411 17.274-3.934l0.293-0.134 62.945 71.945-63.509 72.457-1.495-0.671c-4.767-2.011-10.012-3.128-15.507-3.128-21.994 0-39.82 17.826-39.82 39.824 0 21.994 17.826 39.82 39.82 39.82s39.824-17.826 39.824-39.82c0-7.568-2.107-14.636-5.766-20.652l-0.119-0.184 61.667-70.366 142.57 163.016-0.131 0.228c-3.066 5.644-4.802 12.104-4.802 18.978 0.004 21.994 17.827 39.82 39.824 39.82zM22.756 480c12.56 0 22.756-10.196 22.756-22.756v-443.732h443.732c12.553 0 22.756-10.203 22.756-22.756s-10.203-22.756-22.756-22.756h-466.488c-0.784 0-1.561 0.034-2.335 0.109-0.762 0.091-1.511 0.2-2.251 0.343-0.74 0.147-1.474 0.343-2.188 0.559-0.715 0.209-1.405 0.475-2.089 0.765s-1.346 0.599-1.995 0.958c-0.649 0.353-1.271 0.731-1.876 1.143-0.599 0.412-1.183 0.846-1.751 1.311-0.574 0.465-1.105 0.955-1.617 1.467s-0.999 1.046-1.467 1.611c-0.465 0.581-0.899 1.155-1.311 1.758-0.406 0.599-0.793 1.236-1.146 1.879-0.356 0.656-0.671 1.311-0.955 1.992-0.287 0.69-0.549 1.374-0.768 2.089-0.215 0.721-0.406 1.442-0.556 2.176-0.15 0.743-0.259 1.511-0.343 2.267-0.074 0.774-0.108 1.552-0.108 2.329v466.488c0 12.56 10.196 22.756 22.756 22.756z" />
<glyph unicode="&#xe001;" d="M256.599 377.11l-46.994-114.111-123.398-8.236 93.921-79.866-30.42-119.93 105.047 64.752 104.588-65.892-28.997 119.883 95.060 79.216-122.964 9.341-45.843 114.843zM257.227 467.99l69.941-172.338 184.832-15.138-142.292-119.964 42.549-180.539-157.902 98.182-158.542-96.444 44.716 180.658-140.529 120.941 185.525 13.459 71.702 171.183z" />
<glyph unicode="&#xe002;" d="M56.885 320.712h22.759v-34.132h22.759v34.132h22.756v-56.891h22.753v56.891h22.756v-34.132h22.756v34.132h22.753v-56.891h22.759l-0.001 56.891h22.756v-34.132h22.753v34.132h22.753v-56.891h22.753v56.891h22.759v-34.132h22.753l-0.001 34.132h22.753v-56.891h22.759v56.891h34.142v-193.427h-250.312v79.647c0 2.36 1.243 13.861-4.511 19.422l-16.097 16.084c-4.439 4.449-11.639 4.449-16.081 0l-16.091-16.084c-5.176-5.023-4.108-17.061-4.108-19.422v-79.647h-91.030v193.427zM45.515 343.465c-6.284 0-11.383-5.098-11.383-11.38v-216.176c0-6.284 5.101-11.376 11.383-11.376h420.973c6.291 0 11.376 5.092 11.376 11.376l0.001 216.176c0 6.281-5.086 11.38-11.376 11.38h-420.974zM34.132 377.597h443.732c18.857 0 34.139-15.285 34.139-34.132v-238.932c0-18.85-15.282-34.132-34.139-34.132l-443.732-0.001c-18.844 0.003-34.132 15.282-34.132 34.132v238.933c0 18.847 15.288 34.132 34.132 34.132z" />
<glyph unicode="&#xe003;" d="M32 115.918v-105.253c0-5.894 4.783-10.665 10.668-10.665h426.665c5.894 0 10.668 4.77 10.668 10.665l-0.001 105.253h-1.598c-92.812 0-351.984 0-444.8 0h-1.602zM379.401 241.065h22.765l-7.886-34.129h-22.753l7.874 34.129zM242.872 241.065h22.765l-7.886-34.129h-22.75l7.871 34.129zM106.343 241.065h22.762l-7.883-34.129h-22.75l7.871 34.129zM369.789 297.959l-7.886-34.139h-22.759l-5.254-22.759h22.765l-7.886-34.129h-22.747l-5.264-22.759h22.759l-7.87-34.139h22.747l7.886 34.139h22.75l-7.877-34.139h22.753l7.886 34.139h21.27l6.094 22.759h-22.116l7.874 34.129h23.387l6.1 22.759h-24.226l7.87 34.139h-22.747l-7.883-34.139h-22.753l7.877 34.139h-22.75zM233.25 297.959l-7.876-34.135h-22.75l-5.264-22.759h22.762l-7.886-34.129h-22.747l-5.254-22.759h22.75l-7.883-34.139h22.759l7.877 34.139h22.759l-7.886-34.139h22.762l7.874 34.139h22.759l5.254 22.759h-22.753l7.874 34.129h22.759l5.251 22.759h-22.747l7.874 34.135h-22.747l-7.883-34.139h-22.755l7.874 34.139h-22.757zM96.718 297.959l-7.877-34.139h-22.747l-5.264-22.759h22.762l-7.885-34.126h-22.75l-5.251-22.759h22.75l-7.883-34.139h22.759l7.874 34.139h22.759l-7.883-34.135h22.762l7.874 34.139h22.759l5.251 22.759h-22.75l7.874 34.129h22.759l5.251 22.759h-22.759l7.886 34.139h-22.762l-7.874-34.139h-22.759l7.883 34.139-22.759-0.001zM42.668 448c-5.885 0-10.668-4.767-10.668-10.668v-105.25h1.605c92.812 0 351.988 0 444.8 0h1.598v105.25c0 5.9-4.773 10.668-10.668 10.668h-426.667zM32 480h448c17.673 0 32-14.333 32-32v-448c0-17.667-14.327-32-32-32h-448c-17.667 0-32 14.333-32 32v448c0 17.667 14.333 32 32 32z" />
<glyph unicode="&#xe004;" d="M31.997 21.332v-10.668c0-5.885 4.783-10.665 10.668-10.665h117.332c5.9 0 10.668 4.78 10.668 10.665v10.668h-138.668zM138.665 95.997h21.332v-21.329h-21.332v21.329zM53.332 95.997h21.332v-21.329h-21.332v21.329zM351.994 117.335v-64.006h117.332c5.9 0 10.674 4.78 10.674 10.671v53.335h-128.006zM202.665 117.335v-64.006h127.997v64.006h-127.997zM31.997 117.335v-42.668h21.335v-21.339h64v21.339h21.332v-21.339h32v42.668h-10.668v21.339h-63.996v-21.339h-21.335v21.339h-42.668zM138.665 181.332h21.332v-21.335h-21.332v21.335zM53.332 181.332h21.332v-21.335h-21.332v21.335zM351.994 202.668v-64.003h128.006v64.003h-128.006zM202.665 202.668v-64.003h127.997l-0.001 64.003h-127.996zM31.997 202.668v-42.671h21.335v-21.332h64v21.332h21.332v-21.332h32l0.001 42.667h-10.668v21.335l-63.997 0.001v-21.335h-21.335v21.335h-42.668zM138.665 266.668h21.332v-21.335h-21.332v21.335zM53.332 266.668h21.332v-21.335h-21.332v21.335zM351.994 288v-64h128.006v64h-128.006zM202.665 288v-64h127.997l-0.001 64h-127.996zM31.997 288v-42.668h21.335v-21.332h64v21.332h21.332l0.001-21.332h32v42.668h-10.668v21.332h-63.997v-21.332h-21.335v21.332h-42.668zM138.665 352.003h21.332v-21.335h-21.332v21.335zM53.332 352.003h21.332v-21.335h-21.332v21.335zM351.994 373.332v-64.003h128.006v64.003h-128.006zM202.665 373.332v-64.003h127.997l-0.001 64.003h-127.996zM31.997 373.332v-42.664h21.335v-21.339h64v21.339h21.332v-21.339h32l0.001 42.674h-10.668v21.329h-63.997v-21.329h-21.335v21.329h-42.668zM394.668 437.332h21.329v-21.332h-21.329v21.332zM223.997 437.332h21.335v-21.332h-21.335v21.332zM138.665 437.332h21.332v-21.332h-21.332v21.332zM53.332 437.332h21.332l0.001-21.332h-21.332l-0.001 21.332zM351.994 448v-42.668h21.335v10.668h21.339v-10.668h63.997v10.668h21.335v21.332c0 5.888-4.773 10.668-10.674 10.668h-31.997v-10.668h-21.332v10.668h-64.003zM202.665 448v-32h21.332v-10.668h64v10.668h21.335v-10.668h21.329v10.668h-21.329v21.332h21.329v10.668h-63.996v-10.668h-21.332l-0.001 10.668h-42.667zM42.665 448c-5.885 0-10.668-4.78-10.668-10.668v-21.332h21.335v-10.668h64v10.668h21.332v-10.668h32v32h-10.668l0.001 10.668h-63.997v-10.668h-21.335v10.668h-32zM31.997 480h448.003c17.673 0 32-14.32 32-32v-394.671c0-17.67-14.327-31.997-32-31.997h-277.335v-21.332c0-17.676-14.324-32-32-32h-138.668c-17.664 0-31.997 14.324-31.997 32v448c0 17.68 14.333 32 31.997 32z" />
<glyph unicode="&#xe005;" d="M174.395 81.236l-3.415-32.465 3.7-0.24c4.364-0.219 8.77-0.325 13.193-0.325l3.478 0.044-3.425 32.578h-0.056c-3.862 0-7.696 0.097-11.514 0.293l-1.961 0.115zM273.314 109.103l-8.685-6.178-2.704-1.736 16.325-28.282 4.614 2.96c3.409 2.304 6.762 4.686 10.046 7.146l2.279 1.789-21.875 24.301zM321.851 176.503l-0.865-2.925-3.459-10.212 29.865-13.296 0.718 1.895c1.439 3.927 2.788 7.895 4.034 11.91l1.73 5.816-32.023 6.812zM174.064 245.854c-5.373 0-10.736-0.406-14.842-1.218v-41.269c8.192-1.627 21.488-1.627 29.68 0l89.051 17.689c8.192 1.627 8.192 4.268 0 5.894l-89.051 17.686c-4.098 0.812-9.468 1.218-14.838 1.218zM347.448 297.775l-29.861-13.296 3.403-10.059 0.796-2.676 32.019 6.806-1.658 5.573c-1.246 4.012-2.594 7.986-4.030 11.91l-0.669 1.742zM280.629 373.56l-16.328-28.282 0.328-0.206c2.975-2.011 5.9-4.090 8.77-6.238l1.286-1.015 21.869 24.295-3.643 2.863c-3.287 2.46-6.637 4.842-10.046 7.146l-2.236 1.437zM187.867 399.8c-2.213 0-4.418-0.028-6.622-0.084l-3.55-0.134 3.419-32.518 0.98 0.037c1.914 0.050 3.84 0.069 5.772 0.069l5.442-0.066 3.425 32.524-2.251 0.084c-2.198 0.060-4.402 0.088-6.615 0.088zM118.64 423.805h274.726v-399.61h-274.726v399.61zM99.902 445.659c-1.726 0-3.122-1.396-3.122-3.122v-437.076c0-1.726 1.396-3.122 3.122-3.122h312.198c1.723 0 3.119 1.396 3.119 3.122l0.001 437.076c0 1.726-1.396 3.122-3.119 3.122h-312.199zM99.902 480h312.198c20.689 0 37.463-16.774 37.463-37.463v-437.076c0-20.692-16.774-37.46-37.463-37.46l-312.198-0.001c-20.692 0-37.467 16.768-37.467 37.46l0.001 427.711v9.366c0 20.689 16.774 37.463 37.466 37.463z" />
<glyph unicode="&#xe006;" d="M39.808 139.495c-6.281 0-11.376-5.092-11.376-11.373v-62.548c0-6.281 5.092-11.367 11.376-11.367h238.832c6.284 0 11.376 5.086 11.376 11.367v62.548c0 6.281-5.092 11.373-11.376 11.373h-238.832zM448.684 154.377h37.557c2.597 0 4.692-2.332 4.692-5.207v-79.666h1.383c10.699 0 18.298 0 18.298 0 1.845-2.036 1.845-5.335 0-7.371l-39.839-44.201c-0.918-1.018-2.117-1.53-3.319-1.53-1.199 0-2.401 0.512-3.316 1.53l-39.839 44.201c-1.833 2.036-1.833 5.335 0 7.371 0 0 7.602 0 18.298 0h1.374v79.666c0.009 2.875 2.113 5.207 4.711 5.207zM407.205 231.805c1.202 0 2.401-0.509 3.328-1.524l39.839-44.201c1.833-2.036 1.833-5.335 0-7.371 0 0-7.611 0-18.31 0h-1.374v-79.666c0-0.718-0.131-1.402-0.368-2.023l-0.034-0.066-0.066-0.19c-0.709-1.751-2.376-2.975-4.318-2.975h-37.463c-2.585 0-4.68 2.182-4.68 4.88l-0.022 80.050h-1.383c-10.699 0-18.301 0-18.301 0-1.829 2.029-1.829 5.329 0 7.365l39.842 44.201c0.91 1.011 2.112 1.52 3.31 1.52zM39.808 271.329c-6.281 0-11.376-5.089-11.376-11.373v-62.548c0-6.278 5.092-11.37 11.376-11.37h238.832c6.284 0 11.376 5.092 11.376 11.37l0.001 62.548c0 6.281-5.092 11.373-11.376 11.373h-238.833zM373.638 388.546h133.12l-49.458-55.708v-72.936l-34.192 23.19 0.001 49.742-49.471 55.712zM39.808 403.166c-6.281 0-11.376-5.092-11.376-11.373v-62.545c0-6.278 5.092-11.373 11.376-11.373h238.832c6.284 0 11.376 5.095 11.376 11.373l0.001 62.548c0 6.278-5.092 11.373-11.376 11.373h-238.833zM375.24 406.921h129.911c3.787 0 6.837-3.060 6.837-6.837 0-2.126-0.962-4.024-2.485-5.276l-0.219-0.165v0.028l-138.399 0.137c-1.524 1.255-2.485 3.15-2.485 5.276 0.003 3.775 3.053 6.837 6.84 6.837v0zM25.594 431.597h267.273c14.133 0 25.584-11.458 25.584-25.584l0.001-90.977c0-7.952-3.631-15.054-9.313-19.746l-0.915-0.687 0.915-0.687c5.682-4.692 9.313-11.795 9.313-19.743v-90.977c0-7.945-3.631-15.048-9.313-19.743l-0.915-0.69 0.915-0.684c5.682-4.692 9.313-11.792 9.313-19.743v-90.977c0-14.127-11.451-25.584-25.584-25.584h-267.274c-14.133 0-25.591 11.458-25.591 25.584v90.977c0 7.952 3.628 15.051 9.31 19.743l0.921 0.684-0.921 0.69c-5.685 4.692-9.313 11.798-9.313 19.743v90.977c0 7.948 3.628 15.051 9.31 19.743l0.921 0.687-0.921 0.687c-5.682 4.692-9.31 11.794-9.31 19.746v90.974c0 14.13 11.458 25.587 25.594 25.587z" />
<glyph unicode="&#xe007;" d="M375.468 252.444c50.27 0 91.020-40.757 91.020-91.024s-40.754-91.020-91.020-91.020c-50.267 0-91.020 40.757-91.020 91.020-0.004 50.27 40.753 91.024 91.020 91.024zM130.844 263.82c21.994 0 39.82-17.826 39.82-39.82 0-22-17.826-39.824-39.82-39.824s-39.82 17.824-39.82 39.824c0 21.994 17.826 39.82 39.82 39.82zM256 400.356c34.566 0 62.58-28.010 62.58-62.576s-28.014-62.58-62.58-62.58-62.576 28.010-62.576 62.576 28.010 62.58 62.576 62.58zM22.756 480c12.56 0 22.756-10.196 22.756-22.756v-443.732h443.732c12.553 0 22.756-10.203 22.756-22.756s-10.203-22.756-22.756-22.756h-466.488c-0.784 0-1.561 0.034-2.335 0.109-0.762 0.091-1.511 0.2-2.251 0.343-0.74 0.147-1.474 0.343-2.188 0.559-0.715 0.209-1.405 0.475-2.089 0.765s-1.346 0.599-1.995 0.958c-0.649 0.353-1.271 0.731-1.876 1.143-0.599 0.412-1.183 0.846-1.751 1.311-0.574 0.465-1.105 0.955-1.617 1.467s-0.999 1.046-1.467 1.611c-0.465 0.581-0.899 1.155-1.311 1.758-0.406 0.599-0.793 1.236-1.146 1.879-0.356 0.656-0.671 1.311-0.955 1.992-0.287 0.69-0.549 1.374-0.768 2.089-0.215 0.721-0.406 1.442-0.556 2.176-0.15 0.743-0.259 1.511-0.343 2.267-0.074 0.774-0.108 1.552-0.108 2.329v466.488c0 12.56 10.196 22.756 22.756 22.756z" />
<glyph unicode="&#xe008;" d="M417.867 42.399h63.113l-31.557-31.554-31.556 31.554zM420.98 70.4c-6.291 0-11.38-5.089-11.38-11.38v-56.888c0-6.291 5.089-11.38 11.38-11.38h56.888c6.291 0 11.38 5.089 11.38 11.38v56.888c0 6.291-5.089 11.38-11.38 11.38h-56.888zM136.532 93.156h159.288v-22.756h-159.288v22.756zM91.024 93.156h22.756v-22.756h-22.756v22.756zM136.532 150.047h193.42v-22.756h-193.42v22.756zM91.024 150.047h22.756v-22.756h-22.756v22.756zM136.532 206.932h102.4v-22.756h-102.4v22.756zM91.024 206.932h22.756v-22.756h-22.756v22.756zM136.532 263.82h147.912v-22.756l-147.912 0.001v22.755zM91.024 263.82h22.756v-22.756h-22.756v22.756zM136.532 320.712h193.42v-22.756h-193.42v22.756zM91.024 320.712h22.756v-22.756h-22.756v22.756zM136.532 377.6h113.776v-22.756h-113.776v22.756zM91.024 377.6h22.756v-22.756h-22.756v22.756zM56.888 434.488c-6.284 0-11.38-5.095-11.38-11.38v-398.22c0-6.291 5.095-11.38 11.38-11.38h329.959v420.98h-329.959zM449.42 437.601l31.557-31.557h-63.113l31.556 31.557zM420.98 457.244c-6.291 0-11.38-5.095-11.38-11.376v-56.891c0-6.281 5.089-11.376 11.38-11.376h56.888c6.291 0 11.38 5.095 11.38 11.376l-0.001 56.891c0 6.281-5.089 11.376-11.38 11.376h-56.887zM34.132 480h443.732c18.848 0 34.136-15.285 34.136-34.132v-443.732c0-18.844-15.288-34.135-34.135-34.135l-443.733-0.001c-18.847 0-34.132 15.288-34.132 34.135v443.733c0 18.847 15.285 34.132 34.132 34.132z" />
<glyph unicode="&#xe009;" d="M409.6 36.265v-11.376h11.38v-11.38h11.38v-11.38h11.38v11.38h11.376v11.38h11.38v11.376h-56.896zM68.268 127.288h159.288v-22.756h-159.288v22.756zM68.268 172.8h364.091v-22.753h-364.091v22.753zM68.268 218.312h238.932v-22.756h-238.932v22.756zM34.132 252.444c-6.275 0-11.376-5.101-11.376-11.38v-159.288c0-6.278 5.101-11.38 11.376-11.38h443.732c6.278 0 11.38 5.101 11.38 11.38v159.292c0 6.278-5.101 11.38-11.38 11.38l-443.732-0.001zM432.356 320.712v-11.376h-11.38v-11.38h-11.376v-11.38h56.896v11.38h-11.38v11.38h-11.376v11.376h-11.384zM409.6 445.868v-11.38h11.38v-11.38h11.38v-11.38h11.38v11.38h11.376v11.38h11.38v11.38h-56.896zM34.132 480h443.732c18.857 0 34.136-15.279 34.136-34.132v-68.268h-512v-22.756h512v-352.712c0-18.857-15.279-34.135-34.135-34.135h-443.733c-18.853 0.003-34.132 15.282-34.132 34.138v443.733c0 18.853 15.279 34.132 34.132 34.132z" />
<glyph unicode="&#xe00a;" d="M352.712 104.532h68.268v-45.512h-68.268v45.512zM261.688 104.532h68.265v-45.512h-68.265v45.512zM170.668 104.532h68.268v-45.512h-68.268v45.512zM79.644 104.532h68.268v-45.512h-68.268v45.512zM352.712 172.8h68.268v-45.509h-68.268v45.509zM261.688 172.8h68.265v-45.509h-68.265v45.509zM170.668 172.8h68.268v-45.509h-68.268v45.509zM79.644 172.8h68.268v-45.509h-68.268v45.509zM352.712 241.068h68.268v-45.512h-68.268v45.512zM261.688 241.068h68.265v-45.512h-68.265v45.512zM170.668 241.068h68.268v-45.512h-68.268v45.512zM45.512 275.2v-238.936c0-6.288 5.095-11.376 11.38-11.376h398.22c6.291 0 11.38 5.089 11.38 11.376l-0.001 193.424v45.512h-420.979zM45.512 400.356h56.888v-11.38c0-25.132 20.377-45.512 45.512-45.512 25.132 0 45.512 20.377 45.512 45.512v11.38h125.156v-11.38c0-25.132 20.374-45.512 45.509-45.512s45.511 20.381 45.511 45.512v11.38h56.888c25.135 0 45.512-20.377 45.512-45.512v-329.953c0-25.135-20.377-45.512-45.512-45.512l-420.976 0.001c-25.135 0-45.512 20.376-45.512 45.511v329.953c0 25.132 20.377 45.512 45.512 45.512zM364.088 468.62c12.566 0 22.756-10.19 22.756-22.756v-56.888c0-12.566-10.19-22.756-22.756-22.756s-22.756 10.19-22.756 22.756v56.889c0 12.569 10.19 22.755 22.756 22.755zM147.912 468.62c12.566 0 22.756-10.19 22.756-22.756v-56.888c0-12.566-10.19-22.756-22.756-22.756s-22.756 10.19-22.756 22.756v56.889c0 12.569 10.19 22.755 22.756 22.755z" />
<glyph unicode="&#xe00b;" d="M193.424 206.932c-6.284 0-11.38-5.095-11.38-11.38v-147.912c0-6.288 5.095-11.38 11.38-11.38h147.909c6.291 0 11.38 5.092 11.38 11.38l-0.001 147.916c0 6.284-5.089 11.38-11.38 11.38l-147.908-0.001zM170.668 263.82h193.424c25.135 0 45.512-20.377 45.512-45.512v-193.42c0-25.135-20.377-45.512-45.512-45.512h-193.424c-25.132 0-45.512 20.377-45.512 45.512v193.424c0 25.135 20.377 45.508 45.512 45.508zM329.953 354.844h147.912c18.844 0 34.135-15.285 34.135-34.135v-147.909c0-18.844-15.288-34.132-34.135-34.132h-45.509v45.508h22.753c6.291 0 11.38 5.095 11.38 11.38v102.4c0 6.284-5.089 11.38-11.38 11.38h-102.4c-6.291 0-11.38-5.095-11.38-11.38v-11.38h-45.505v34.136c0 18.85 15.285 34.132 34.129 34.132zM34.132 354.844h147.912c18.85 0 34.135-15.285 34.135-34.135v-34.132l-45.511-0.001v11.38c0 6.284-5.095 11.38-11.376 11.38h-102.4c-6.284 0-11.38-5.095-11.38-11.38v-102.4c0-6.284 5.095-11.38 11.38-11.38h45.508v-45.509l-68.268 0.001c-18.847 0-34.132 15.285-34.132 34.132v147.912c0 18.85 15.285 34.132 34.132 34.132zM295.824 468.62h102.4c12.566 0 22.756-10.19 22.756-22.756v-79.644h-34.135l-0.001 68.268h-79.644v-74.368l-0.846-0.49c-11.892-7.221-20.202-19.734-21.679-34.267l-0.122-1.648-1.455 0.884c-6.053 4.090-10.034 11.011-10.034 18.866v102.4c0.004 12.569 10.191 22.755 22.76 22.755zM113.776 468.62h102.4c12.566 0 22.756-10.19 22.756-22.756v-102.4c0-7.855-3.977-14.776-10.034-18.866l-1.455-0.884-0.125 1.648c-1.477 14.533-9.794 27.045-21.676 34.267l-0.842 0.494v74.365h-79.644v-68.268h-34.132v79.645c0 12.569 10.187 22.755 22.752 22.755z" />
<glyph unicode="&#xe00c;" d="M102.4 47.647h159.288v-22.756h-159.288v22.756zM53.073 81.951v-63.688c0-11.723 9.822-21.229 21.938-21.229h361.978c12.116 0 21.938 9.506 21.938 21.229v63.688h-405.854zM102.4 138.668v-22.756h307.2v22.756h-307.2zM102.4 229.688h182.047v-22.756h-182.047v22.756zM22.756 241.068l30.317 0.006v-68.274h405.854v68.274l30.317-0.006v-68.268c12.566 0 22.756-10.187 22.756-22.753v-45.512c0-12.566-10.19-22.756-22.756-22.756v-68.265c0-25.135-20.374-45.512-45.512-45.512l-375.464 0.001c-25.135 0-45.512 20.377-45.512 45.512v68.265c-12.569 0-22.756 10.19-22.756 22.756v45.512c0 12.566 10.187 22.753 22.756 22.753v68.267zM375.471 388.976v-11.376h11.38v-11.38h11.376v-11.38h11.38v-11.38h11.38v11.38h11.38v11.38h11.38l-0.002 11.38h11.376v11.376h-79.65zM318.576 480h159.288c18.854 0 34.136-15.282 34.136-34.132v-147.909c0-18.853-15.282-34.135-34.135-34.135h-159.288l-0.001 216.176zM34.135 480h261.688v-34.132h-250.311c-6.284 0-11.376-5.095-11.376-11.38v-125.156c0-6.284 5.092-11.376 11.376-11.376h250.312v-34.135l-261.689-0.001c-18.853 0.004-34.135 15.286-34.135 34.136v147.912c0 18.85 15.282 34.132 34.135 34.132z" />
<glyph unicode="&#xe00d;" d="M352.712 115.912h102.4v-68.268h-102.4v68.268zM79.644 190.555h102.4v-142.91h-102.4v142.91zM216.18 268.023h102.4v-220.379h-102.4v220.379zM267.38 468.62c22 0 39.824-17.826 39.824-39.82 0-6.178-1.411-12.051-3.937-17.274l-0.197-0.421 90.365-148.692 0.534 0.15c3.169 0.827 6.512 1.261 9.947 1.261 22 0 39.824-17.826 39.824-39.82 0-22-17.823-39.824-39.824-39.824s-39.828 17.82-39.828 39.82c0 9.628 3.412 18.444 9.088 25.338l0.946 1.033-87.311 143.666-0.446-0.25c-5.657-3.072-12.123-4.811-18.988-4.811-7.568 0-14.636 2.107-20.652 5.766l-0.356 0.228-80.774-71.882 0.259-0.456c3.072-5.657 4.811-12.116 4.811-18.988 0-21.994-17.826-39.824-39.82-39.824s-39.82 17.826-39.82 39.824c0 21.994 17.826 39.82 39.82 39.82 6.178 0 12.051-1.411 17.274-3.927l1.115-0.565 82.045 73.022-0.593 1.311c-2.011 4.767-3.128 10-3.128 15.494-0.002 21.995 17.824 39.821 39.822 39.821zM22.756 480c12.56 0 22.756-10.196 22.756-22.756v-443.732h443.732c12.553 0 22.756-10.203 22.756-22.756s-10.203-22.756-22.756-22.756h-466.488c-0.784 0-1.561 0.034-2.335 0.109-0.762 0.091-1.511 0.2-2.251 0.343-0.74 0.147-1.474 0.343-2.188 0.559-0.715 0.209-1.405 0.475-2.089 0.765s-1.346 0.599-1.995 0.958c-0.649 0.353-1.271 0.731-1.876 1.143-0.599 0.412-1.183 0.846-1.751 1.311-0.574 0.465-1.105 0.955-1.617 1.467s-0.999 1.046-1.467 1.611c-0.465 0.581-0.899 1.155-1.311 1.758-0.406 0.599-0.793 1.236-1.146 1.879-0.356 0.656-0.671 1.311-0.955 1.992-0.287 0.69-0.549 1.374-0.768 2.089-0.215 0.721-0.406 1.442-0.556 2.176-0.15 0.743-0.259 1.511-0.343 2.267-0.074 0.774-0.108 1.552-0.108 2.329v466.488c0 12.56 10.196 22.756 22.756 22.756z" />
<glyph unicode="&#xe00e;" d="M294.309 225.033h54.756c10.777 0 16.178-4.118 16.178-12.344 0-3.593-1.311-6.5-3.946-8.71-2.632-2.213-6.5-3.319-11.611-3.319h-49.264l-5.91-33.602c9.822 5.257 18.878 7.877 27.177 7.877 6.634 0 12.844-1.243 18.61-3.734 5.769-2.488 10.836-5.925 15.188-10.315 4.358-4.389 7.777-9.6 10.268-15.6 2.488-6.025 3.731-12.491 3.731-19.4 0-10.025-2.245-19.156-6.731-27.38-4.489-8.223-10.98-14.757-19.447-19.6s-18.245-7.268-29.3-7.268c-12.379 0-22.412 2.288-30.121 6.843-7.714 4.58-13.181 9.803-16.39 15.713-3.216 5.91-4.823 11.089-4.823 15.51 0 2.688 1.121 5.257 3.372 7.668 2.242 2.42 5.061 3.643 8.451 3.643 5.81 0 10.121-3.353 12.965-10.068 2.757-6.156 6.487-10.933 11.202-14.355 4.699-3.425 9.953-5.136 15.753-5.136 5.335 0 10 1.377 13.999 4.133 4.012 2.779 7.112 6.575 9.291 11.42 2.179 4.836 3.269 10.337 3.269 16.49 0 6.622-1.18 12.297-3.534 16.999-2.345 4.699-5.492 8.211-9.431 10.533-3.946 2.31-8.336 3.465-13.168 3.465-5.954 0-10.203-0.734-12.756-2.179-2.554-1.442-6.244-3.999-11.042-7.621-4.811-3.621-8.77-5.445-11.879-5.445-3.39 0-6.391 1.224-9.026 3.69-2.632 2.444-3.94 5.223-3.94 8.336 0 0.353 0.378 2.71 1.14 7.062l8.71 49.673c0.968 5.941 2.769 10.262 5.392 12.965 2.624 2.705 6.914 4.056 12.867 4.056zM189.243 227.209c10.577 0 19.6-1.661 27.067-4.976 4.839-2.213 9.094-5.257 12.756-9.129 3.665-3.871 6.516-8.348 8.554-13.428 2.045-5.083 3.060-10.352 3.060-15.816 0-8.57-2.129-16.365-6.378-23.387-4.249-7.018-8.588-12.519-13.015-16.493-4.424-3.968-11.838-10.203-22.244-18.713-10.405-8.51-17.545-15.11-21.41-19.799-1.661-1.867-3.356-4.121-5.083-6.756h54.132c5.395 0 9.506-1.102 12.341-3.312 2.838-2.21 4.255-5.223 4.255-9.022 0-3.39-1.121-6.256-3.372-8.601-2.245-2.357-5.651-3.534-10.215-3.534h-76.328c-5.182 0-9.228 1.433-12.135 4.311-2.9 2.866-4.355 6.235-4.355 10.112 0 2.488 0.933 5.779 2.8 9.887 1.867 4.121 3.912 7.355 6.122 9.709 9.194 9.534 17.489 17.714 24.888 24.514 7.396 6.825 12.684 11.289 15.869 13.446 5.666 3.999 10.39 8.020 14.155 12.073 3.768 4.043 6.637 8.192 8.604 12.441 1.973 4.255 2.956 8.423 2.956 12.5 0 4.424-1.055 8.386-3.163 11.873-2.11 3.497-4.976 6.206-8.604 8.145-3.634 1.932-7.589 2.9-11.879 2.9-9.054 0-16.178-3.971-21.36-11.92-0.693-1.040-1.848-3.874-3.472-8.507-1.627-4.633-3.462-8.195-5.501-10.683-2.039-2.491-5.029-3.734-8.972-3.734-3.456 0-6.322 1.14-8.607 3.425-2.282 2.279-3.422 5.395-3.422 9.332 0 4.77 1.071 9.75 3.216 14.932 2.145 5.189 5.339 9.89 9.588 14.105 4.255 4.221 9.65 7.621 16.184 10.218 6.537 2.589 14.193 3.887 22.968 3.887zM45.512 275.2v-238.936c0-6.288 5.095-11.376 11.38-11.376h398.22c6.291 0 11.38 5.089 11.38 11.376l-0.001 193.424v45.512h-420.979zM45.512 400.356h56.888v-11.38c0-25.132 20.377-45.512 45.512-45.512 25.132 0 45.512 20.377 45.512 45.512v11.38h125.156v-11.38c0-25.132 20.374-45.512 45.509-45.512s45.511 20.381 45.511 45.512v11.38h56.888c25.135 0 45.512-20.377 45.512-45.512v-329.953c0-25.135-20.377-45.512-45.512-45.512l-420.976 0.001c-25.135 0-45.512 20.376-45.512 45.511v329.953c0 25.132 20.377 45.512 45.512 45.512zM364.088 468.62c12.566 0 22.756-10.19 22.756-22.756v-56.888c0-12.566-10.19-22.756-22.756-22.756s-22.756 10.19-22.756 22.756v56.889c0 12.569 10.19 22.755 22.756 22.755zM147.912 468.62c12.566 0 22.756-10.19 22.756-22.756v-56.888c0-12.566-10.19-22.756-22.756-22.756s-22.756 10.19-22.756 22.756v56.889c0 12.569 10.19 22.755 22.756 22.755z" />
<glyph unicode="&#xe00f;" d="M68.268 70.4h284.444v-22.756h-284.444v22.756zM68.268 138.668h159.288v-22.756h-159.288v22.756zM68.268 206.932h364.091v-22.756h-364.091v22.756zM68.268 275.2h238.932v-22.756h-238.932v22.756zM0 320.712h22.756v-318.576c0-6.291 5.095-11.38 11.376-11.38h443.732c6.291 0 11.38 5.089 11.38 11.38v318.576h22.756v-318.576c0-18.844-15.288-34.135-34.135-34.135l-443.733-0.001c-18.847 0-34.132 15.288-34.132 34.135v318.577zM56.888 423.112v-11.38h11.38v-11.38h11.38v-11.38h11.38v11.38l11.372 0.001v11.38h11.38v11.38l-56.892-0.001zM34.132 480h443.732c18.848 0 34.136-15.285 34.136-34.132v-102.4h-512v102.4c0 18.847 15.285 34.132 34.132 34.132z" />
<glyph unicode="&#xe010;" d="M261.688 138.668h147.912v-22.756h-147.912v22.756zM159.288 184.176c31.416 0 56.888-25.472 56.888-56.888 0-31.422-25.472-56.891-56.888-56.891s-56.891 25.466-56.891 56.891c0.003 31.416 25.475 56.888 56.891 56.888zM261.688 297.956h147.912v-22.756h-147.912v22.756zM136.532 309.332v-45.512h45.512v45.512h-45.512zM102.4 343.468h113.78v-113.776l-113.78-0.001v113.777zM182.044 423.112h45.512v-45.512h-45.512v45.512zM56.888 423.112h34.135l0.001-45.512h-22.756c-12.566 0-22.756-10.19-22.756-22.756v-295.824c0-12.566 10.19-22.756 22.756-22.756h375.468c12.563 0 22.753 10.19 22.753 22.756l-0.001 295.824c0 12.566-10.19 22.756-22.753 22.756h-193.423v45.512h204.8c31.422 0 56.891-25.472 56.891-56.888v-318.58c0-31.419-25.466-56.888-56.891-56.888h-398.224c-31.416 0-56.888 25.466-56.888 56.888v318.58c0 31.416 25.472 56.888 56.888 56.888zM113.776 457.244h45.512v-79.644h-45.512v79.644z" />
<glyph unicode="&#xe011;" d="M420.98 93.156h79.644c6.291 0 11.38-5.089 11.38-11.38v-79.644c0-6.291-5.089-11.38-11.38-11.38h-79.644c-6.291 0-11.38 5.089-11.38 11.38v79.644c0 6.291 5.089 11.38 11.38 11.38zM284.444 93.156h79.644c6.291 0 11.38-5.089 11.38-11.38v-79.644c0-6.291-5.089-11.38-11.38-11.38l-79.644 0.001c-6.291 0-11.38 5.089-11.38 11.38v79.644c0.004 6.29 5.092 11.379 11.38 11.379zM11.38 93.156h79.644c6.281 0 11.376-5.089 11.376-11.38v-79.644c0-6.291-5.095-11.38-11.376-11.38l-79.644 0.001c-6.284 0-11.38 5.089-11.38 11.38v79.644c0 6.29 5.095 11.379 11.38 11.379zM202.362 381.961c-26.661 0-48.272-19.993-48.272-44.66s21.61-44.663 48.272-44.663 48.272 19.993 48.272 44.663c-0.001 24.664-21.611 44.66-48.272 44.66zM68.268 388.976h375.468l-0.001-169.066-95.413 102.5-126.932-133.654-78.476 64.156-74.646-68.736v204.8zM45.512 411.732v-250.312h420.976v250.312h-420.976zM34.132 457.244h443.732c18.844 0 34.135-15.285 34.135-34.132v-113.776l-34.135-22.578 34.136-22.938v-113.776c0-18.844-15.288-34.135-34.135-34.135h-286.193l15.054-22.756h20.827c6.284 0 11.38-5.089 11.38-11.38v-79.644c0-6.291-5.095-11.38-11.38-11.38l-79.641 0.001c-6.284 0-11.38 5.089-11.38 11.38v79.644c0 6.291 5.095 11.38 11.38 11.38h20.889l15.288 22.756-149.957-0.001c-18.847 0.003-34.132 15.291-34.132 34.138v113.773l34.132 22.934-34.132 22.578v113.78c0 18.847 15.285 34.132 34.132 34.132z" />
<glyph unicode="&#xe012;" d="M369.115 98.975v-71.436h83.347c6.569 0 11.904 5.339 11.904 11.907v59.529h-95.251zM250.046 98.975v-71.443h95.254v71.443h-95.254zM130.978 98.975v-71.443h95.257v71.443h-95.257zM369.115 194.232v-71.443h95.257v71.443h-95.257zM250.046 194.232v-71.443h95.254v71.443h-95.254zM130.978 194.232v-71.443h95.257v71.443h-95.257zM369.115 289.489v-71.443h95.257v71.443h-95.257zM250.046 289.489v-71.443h95.254v71.443h-95.254zM130.978 289.489v-71.443h95.257v71.443h-95.257zM47.628 289.489v-250.043c0-6.569 5.335-11.907 11.907-11.907h47.628v47.628l0.001 214.322h-59.536zM59.536 420.468c-6.569 0-11.907-5.339-11.907-11.907v-95.257h416.743v95.253c0 6.569-5.339 11.907-11.904 11.907h-392.932zM47.628 468.096h416.743c26.302 0 47.628-21.326 47.628-47.628v-392.932c0-26.302-21.326-47.628-47.628-47.628l-416.743-0.001c-26.302-0.003-47.628 21.326-47.628 47.625v392.936c0 26.299 21.326 47.628 47.628 47.628z" />
<glyph unicode="&#xe013;" d="M379.411 241.068h22.756l-7.877-34.135h-22.756l7.877 34.135zM242.872 241.068h22.756l-7.877-34.135h-22.756l7.877 34.135zM106.34 241.068h22.756l-7.883-34.135h-22.756l7.883 34.135zM369.789 297.956l-7.877-34.135h-22.756l-5.257-22.756h22.756l-7.877-34.135h-22.756l-5.267-22.756h22.765l-7.877-34.132h22.756l7.877 34.132h22.756l-7.877-34.132h22.756l7.877 34.132h21.276l6.088 22.756h-22.11l7.874 34.135h23.39l6.088 22.756h-24.223l7.877 34.135h-22.756l-7.877-34.135h-22.753l7.877 34.135h-22.75zM233.25 297.956l-7.877-34.135h-22.756l-5.257-22.756h22.756l-7.877-34.135h-22.756l-5.257-22.756h22.756l-7.877-34.132h22.756l7.877 34.132h22.756l-7.877-34.132h22.756l7.87 34.132h22.756l5.267 22.756h-22.753l7.877 34.135h22.753l5.257 22.756h-22.756l7.877 34.135h-22.756l-7.873-34.136h-22.762l7.877 34.135-22.757 0.001zM96.715 297.956l-7.883-34.135h-22.75l-5.257-22.756h22.75l-7.877-34.135-22.75-0.001-5.254-22.756h22.75l-7.877-34.132h22.756l7.883 34.132h22.756l-7.883-34.132h22.756l7.883 34.132h22.756l5.254 22.756h-22.762l7.883 34.135h22.756l5.257 22.756h-22.762l7.883 34.135h-22.756l-7.883-34.135h-22.756l7.883 34.135-22.756 0.001zM34.132 366.224h443.732c18.844 0 34.135-15.285 34.135-34.135v-216.176c0-18.844-15.288-34.135-34.135-34.135l-443.732-0.002c-18.847 0-34.132 15.292-34.132 34.136v216.176c0 18.851 15.285 34.136 34.132 34.136z" />
<glyph unicode="&#xe014;" d="M205.034 284.535l-31.41-16.053 5.463-18.089 22.178 11.607h0.356v-106.499h24.573l0.001 129.034h-21.161zM398.907 286.57c-13.818 0-26.964-4.427-33.623-8.857l5.285-18.107c4.945 3.069 13.659 6.999 22.534 6.999 11.948 0 17.911-6.644 17.911-15.697 0-12.463-12.962-18.089-23.037-18.089h-8.195v-17.748h8.713c13.824 0 26.446-6.825 26.446-21.342 0-10.574-7.677-20.14-23.215-20.14-9.89 0-20.305 3.927-25.088 6.999l-5.626-19.109c6.481-4.268 18.769-7.858 32.428-7.858 30.036 0 47.269 17.411 47.269 38.912 0 17.589-11.945 29.178-26.287 32.428v0.337c14.18 5.304 22.197 16.393 22.197 29.699 0.005 17.072-12.976 31.573-37.712 31.573zM302.305 286.57c-14.842 0-28.163-5.445-36.18-11.607l6.999-18.089c5.966 4.446 14.679 9.394 24.070 9.394 14.161 0 20.127-9.394 20.127-20.642 0-17.411-14.342-33.967-38.731-59.233l-14.342-15.357v-15.538h80.715v21.001l-47.425 0.001v0.34l10.749 10.587c18.769 18.947 34.304 37.716 34.304 60.572-0.001 21.001-12.629 38.571-40.286 38.571zM34.126 366.214h443.751c18.838 0 34.126-15.269 34.126-34.126v-216.18c0-18.853-15.285-34.123-34.126-34.123l-443.751 0.001c-18.841 0-34.126 15.269-34.126 34.123v216.179c0 18.857 15.285 34.126 34.126 34.126z" />
<glyph unicode="&#xe015;" d="M202.362 262.494c-26.661 0-48.272-19.993-48.272-44.66s21.61-44.666 48.272-44.666 48.272 19.996 48.272 44.666c-0.001 24.667-21.611 44.66-48.272 44.66zM68.268 269.512h375.468v-169.066l-95.413 102.5-126.935-133.657-78.476 64.156-74.646-68.736-0.001 204.803zM45.512 292.268v-250.312h420.976v250.312h-420.976zM34.132 337.776h443.732c18.844 0 34.135-15.285 34.135-34.132v-273.065c0-18.844-15.288-34.135-34.135-34.135h-443.732c-18.847 0-34.132 15.291-34.132 34.136v273.064c0 18.85 15.285 34.132 34.132 34.132zM398.224 451.556h68.265c6.291 0 11.38-5.095 11.38-11.376v-68.268c0-6.284-5.089-11.38-11.38-11.38h-68.265c-6.291 0-11.38 5.095-11.38 11.38v68.268c0 6.281 5.089 11.376 11.38 11.376zM284.444 451.556h68.265c6.291 0 11.38-5.095 11.38-11.376v-68.268c0-6.284-5.089-11.38-11.38-11.38h-68.265c-6.291 0-11.38 5.095-11.38 11.38l0.001 68.268c0.003 6.281 5.091 11.376 11.379 11.376zM170.668 451.556h68.268c6.284 0 11.38-5.095 11.38-11.376v-68.268c0-6.284-5.095-11.38-11.38-11.38h-68.268c-6.284 0-11.376 5.095-11.376 11.38l-0.001 68.268c-0.003 6.281 5.092 11.376 11.377 11.376zM56.888 451.556h68.268c6.284 0 11.38-5.095 11.38-11.376v-68.268c0-6.284-5.095-11.38-11.38-11.38h-68.268c-6.284 0-11.38 5.095-11.38 11.38l0.001 68.268c0.003 6.281 5.095 11.376 11.379 11.376z" />
<glyph unicode="&#xe016;" d="M268.494 74.149v-15.612h56.192v15.613l-56.192-0.001zM268.494 117.854v-15.61h56.192v15.61h-56.192zM268.494 161.561v-15.61h56.192v15.61h-56.192zM268.494 205.268v-15.61h56.192v15.61h-56.192zM268.494 255.22v-15.61h56.192v15.61h-56.192zM190.505 297.887c-2.285 0-4.564-0.824-6.309-2.473v-83.512c3.49-3.294 9.135-3.294 12.619 0l37.846 35.794c3.481 3.294 3.481 8.635 0 11.929l-37.847 35.79c-1.745 1.648-4.024 2.472-6.309 2.472zM268.494 298.927v-15.61h56.192v15.61h-56.192zM268.494 342.634v-15.61h56.192v15.61h-56.192zM268.494 386.341v-15.61h56.192v15.61h-56.192zM196.683 423.805h118.634c20.689 0 37.463-16.771 37.463-37.463v-324.683c0-20.686-16.774-37.46-37.463-37.46l-118.634-0.001c-20.689 0-37.463 16.774-37.463 37.46v324.683c0 20.693 16.774 37.464 37.463 37.464zM196.683 445.659c-32.759 0-59.311-26.558-59.311-59.317v-324.683c0-32.759 26.552-59.317 59.311-59.317h118.634c32.762 0 59.32 26.558 59.32 59.317v324.682c0 32.759-26.558 59.317-59.32 59.317l-118.634 0.001zM196.683 480h118.634c51.728 0 93.655-41.931 93.655-93.659v-324.683c0-51.728-41.928-93.659-93.655-93.659l-118.634 0.001c-51.718 0-93.659 41.931-93.659 93.659v324.682c0.004 51.728 41.941 93.659 93.659 93.659z" />
<glyph unicode="&#xe017;" d="M159.288 59.020h159.288v-22.756l-159.288 0.001v22.755zM102.4 59.020h22.756v-22.756l-22.756 0.001v22.755zM159.288 115.912h193.42v-22.756h-193.42v22.756zM102.4 115.912h22.756v-22.756h-22.756v22.756zM56.888 150.047v-136.532c0-6.291 5.095-11.38 11.38-11.38h375.468c6.288 0 11.376 5.089 11.376 11.38v136.532h-398.224zM159.288 206.932v-22.756h147.912v22.756h-147.912zM102.4 206.932v-22.756h22.756v22.756h-22.756zM159.288 297.956h102.4v-22.756h-102.4v22.756zM102.4 297.956h22.756v-22.756h-22.756v22.756zM68.268 343.468c-6.284 0-11.38-5.095-11.38-11.38v-91.020h398.22l0.001 91.020c0 6.284-5.089 11.38-11.376 11.38h-375.465zM68.268 377.6h375.468c25.132 0 45.509-20.377 45.509-45.512v-91.020c12.566 0 22.756-10.19 22.756-22.756l-0.001-45.512c0-12.563-10.19-22.753-22.756-22.753v-136.532c0-25.135-20.377-45.512-45.509-45.512h-375.467c-25.135 0-45.512 20.377-45.512 45.512v136.532c-12.566 0-22.756 10.187-22.756 22.753v45.512c0 12.566 10.19 22.756 22.756 22.756v91.020c0 25.135 20.377 45.512 45.512 45.512zM56.888 480h147.912c12.566 0 22.756-10.19 22.756-22.756v-34.132c0-12.566-10.187-22.756-22.756-22.756h-147.912c-12.566 0-22.756 10.19-22.756 22.756v34.132c0 12.566 10.19 22.756 22.756 22.756z" />
<glyph unicode="&#xe018;" d="M452.664 109.3c2.9 0 5.797-1.105 8.002-3.319l48.022-48.012c4.421-4.421 4.421-11.589 0-16.006l-48.022-48.009c-4.424-4.424-11.579-4.424-16 0v112.028c2.21 2.209 5.107 3.318 7.998 3.318zM407.396 109.3c2.891 0 5.801-1.105 8.002-3.319v-112.028c-4.421-4.424-11.576-4.424-16 0l-48.022 48.009c-4.411 4.418-4.411 11.586 0 16.006l48.022 48.012c2.2 2.211 5.11 3.32 7.998 3.32zM45.509 286.698c-6.284 0-11.38-5.095-11.38-11.38v-193.42c0-6.284 5.095-11.38 11.38-11.38h250.312c6.288 0 11.38 5.095 11.38 11.38l-0.001 193.421c0 6.284-5.092 11.38-11.38 11.38l-250.311-0.001zM113.773 354.966c-6.284 0-11.38-5.095-11.38-11.38v-22.756h204.803c18.844 0 34.132-15.285 34.132-34.132v-147.912h22.756c6.291 0 11.38 5.095 11.38 11.38v22.756l0.001 34.129v136.535c0 6.284-5.089 11.38-11.38 11.38h-250.312zM182.044 423.23c-6.284 0-11.38-5.095-11.38-11.38v-22.756h204.8c18.844 0 34.135-15.285 34.135-34.132v-147.912h22.756c6.288 0 11.38 5.095 11.38 11.38v193.424c0 6.284-5.092 11.38-11.38 11.38h-250.311zM170.665 457.366h273.068c18.844 0 34.132-15.285 34.132-34.132v-216.18c0-18.847-15.285-34.132-34.132-34.132h-34.135v-34.135c0-18.85-15.288-34.135-34.135-34.135h-34.135v-34.132c0-18.85-15.285-34.135-34.132-34.135l-273.064-0.002c-18.85 0-34.135 15.285-34.135 34.135v216.18c0 18.85 15.285 34.132 34.135 34.132h34.135l0.001 34.136c0 18.85 15.285 34.132 34.132 34.132h34.135v34.132c-0.006 18.851 15.279 34.136 34.13 34.136z" />
<glyph unicode="&#xe019;" d="M176.677 403.99l63.107-216.361 211.022-72.651-0.29-0.827c-31.219-85.282-113.127-146.151-209.236-146.151-123.030 0-222.764 99.724-222.764 222.757 0 99.952 65.839 184.535 156.516 212.745l1.645 0.488zM368.69 411.929l4.221-2.098c71.577-36.792 120.576-111.575 120.576-197.835 0-24.923-4.090-48.887-11.639-71.252l-1.517-4.311-209.614 72.413 97.973 203.083zM258.354 480c34.604 0 67.365-7.883 96.581-21.966l0.581-0.29-98.604-203.652-0.056 0.012-63.095 216.371 3.612 1.071c19.381 5.507 39.836 8.454 60.981 8.454z" />
<glyph unicode="&#xe01a;" d="M238.932 320.712h68.268v-193.42h-3.212c-18.744 0-38.088 0-57.316 0h-7.739l-0.001 193.42zM147.912 320.712h68.268v-193.42l-7.602-0.001c-20.845 0-40.951 0-59.32 0h-1.346v193.421zM56.888 320.712h68.268v-193.42h-6.044c-37.329 0-62.224 0-62.224 0v193.42zM45.512 343.468c-6.278 0-11.38-5.098-11.38-11.38v-216.176c0-6.278 5.101-11.38 11.38-11.38h420.976c6.278 0 11.38 5.101 11.38 11.38v216.176c0 6.278-5.101 11.38-11.38 11.38h-420.976zM34.132 377.6h443.732c18.857 0 34.135-15.279 34.135-34.135v-238.932c0-18.857-15.279-34.135-34.135-34.135l-443.732-0.001c-18.853 0.003-34.132 15.279-34.132 34.135v238.936c0 18.853 15.279 34.132 34.132 34.132z" />
<glyph unicode="&#xe01b;" d="M256 241.068c9.431 0 17.068-7.633 17.068-17.068s-7.637-17.068-17.068-17.068-17.068 7.637-17.068 17.068 7.637 17.068 17.068 17.068zM256 275.2c-28.272 0-51.2-22.928-51.2-51.2 0-28.266 22.928-51.2 51.2-51.2 5.298 0 10.421 0.802 15.223 2.301l1.012 0.343 101.186-77.243-70.576 105.157 0.331 0.712c2.588 6.131 4.024 12.862 4.024 19.93 0 28.272-22.934 51.2-51.2 51.2zM256 343.468c-65.976 0-119.468-53.488-119.468-119.468 0-32.977 13.365-62.845 34.991-84.48l2.953-2.81 0.824 0.912 19.241 19.244-2.907 2.779c-16.461 16.464-26.658 39.22-26.658 64.355 0 50.267 40.757 91.024 91.024 91.024 25.135 0 47.891-10.196 64.365-26.655l2.769-2.907 14.508 14.505c1.667 1.667 3.534 3.028 5.513 4.068l1.080 0.5-3.768 3.943c-21.622 21.622-51.49 34.99-84.467 34.99zM256 400.356l4.549-0.056c45.452-1.161 86.606-19.49 117.251-48.756l0.29-0.272-0.656 0.478c-6.634 4.368-15.635 3.628-21.454-2.207-6.656-6.665-6.647-17.477 0.009-24.133 6.668-6.656 17.48-6.644 24.145 0.009 5.819 5.835 6.556 14.845 2.154 21.457l-0.556 0.768 1.854-1.901c29.256-30.642 47.588-71.827 48.712-117.26l0.058-4.483-0.091 1.739c-0.865 8.617-8.13 15.329-16.977 15.329-9.431 0-17.068-7.633-17.068-17.068s7.633-17.068 17.068-17.068c8.844 0 16.109 6.709 16.977 15.329l0.091 1.739c0-97.399-78.957-176.356-176.356-176.356-44.132 0-84.477 16.212-115.415 42.999l-0.421 0.378h0.15c4.368 0 8.738 1.68 12.060 5.011 6.656 6.668 6.644 17.48-0.022 24.133-6.668 6.656-17.48 6.644-24.133-0.025-3.334-3.331-4.995-7.699-4.983-12.076v-0.147l-0.593 0.681c-26.787 30.922-42.999 71.267-42.999 115.402l0.087-1.739c0.868-8.617 8.139-15.329 16.977-15.329 9.435 0 17.068 7.633 17.068 17.068s-7.63 17.068-17.064 17.068c-8.838 0-16.109-6.712-16.977-15.329l-0.091-1.739 0.056 4.552c1.096 43.177 17.717 82.501 44.478 112.593l0.328 0.378-0.206-1.424c-0.465-4.892 1.184-9.953 4.939-13.699 6.665-6.656 17.477-6.644 24.133 0.022s6.644 17.477-0.022 24.133c-3.756 3.756-8.807 5.385-13.712 4.917l-1.424-0.206 0.671 0.599c31.155 27.676 72.171 44.491 117.115 44.491l-1.739-0.087c-8.617-0.868-15.329-8.139-15.329-16.977 0-9.435 7.633-17.068 17.068-17.068s17.068 7.633 17.068 17.068c0 8.838-6.709 16.109-15.329 16.977l-1.739 0.087zM256 434.488c-116.243 0-210.488-94.245-210.488-210.488s94.245-210.488 210.488-210.488 210.488 94.245 210.488 210.488-94.245 210.488-210.488 210.488zM256 480c141.378 0 256-114.622 256-256s-114.622-256-256-256-256 114.622-256 256 114.622 256 256 256z" />
<glyph unicode="&#xe01c;" d="M256.603 377.11l-1.854-257.389 104.592-65.889-28.994 119.883 95.063 79.213-122.967 9.341-45.84 114.841zM257.218 467.987l69.95-172.329 184.832-15.141-142.295-119.967 42.543-180.536-157.893 98.179-158.542-96.435 44.709 180.642-140.522 120.945 185.522 13.465 71.696 171.177z" />
<glyph unicode="&#xe01d;" d="M45.512 104.532h45.512c12.566 0 22.756-7.639 22.756-17.068s-10.19-17.068-22.756-17.068l-45.512 0.001c-12.566 0-22.756 7.639-22.756 17.068s10.19 17.067 22.756 17.067zM318.58 195.556c-25.135 0-45.512-20.377-45.512-45.512 0-25.132 20.377-45.509 45.512-45.509 25.132 0 45.509 20.377 45.509 45.509s-20.378 45.512-45.509 45.512zM318.58 241.068c50.267 0 91.020-40.751 91.020-91.024 0-16.493-4.389-31.963-12.066-45.306l-0.487-0.834 41.622-47.017c8.332-9.413 7.443-23.796-1.957-32.125l-8.554-7.564c-9.4-8.329-23.777-7.452-32.109 1.961l-41.734 47.145-0.312-0.134c-10.889-4.605-22.856-7.149-35.422-7.149-50.27 0-91.024 40.751-91.024 91.020-0.001 50.276 40.753 91.027 91.023 91.027zM45.512 241.068h45.512c12.566 0 22.756-7.639 22.756-17.068 0-9.428-10.19-17.068-22.756-17.068h-45.512c-12.566 0-22.756 7.639-22.756 17.068 0 9.428 10.19 17.068 22.756 17.068zM45.512 377.6h45.512c12.566 0 22.756-7.639 22.756-17.068s-10.19-17.068-22.756-17.068l-45.512 0.001c-12.566 0-22.756 7.639-22.756 17.068s10.19 17.067 22.756 17.067zM182.044 434.488v-420.976h172.244l17.776-20.096c16.668-18.822 45.421-20.574 64.244-3.918l25.556 22.622c18.822 16.662 20.58 45.424 3.912 64.244l-22.044 24.916v333.208h-261.688zM113.776 480h341.332c18.844 0 34.135-15.285 34.135-34.132v-443.732c0-18.85-15.288-34.135-34.135-34.135l-341.332-0.001c-18.85 0-34.132 15.285-34.132 34.135v45.509h11.38c25.132 0 45.512 17.829 45.512 39.824s-20.377 39.824-45.512 39.824h-11.38v56.884h11.38c25.132 0 45.512 17.829 45.512 39.824s-20.377 39.82-45.512 39.82h-11.38v56.892h11.38c25.132 0 45.512 17.826 45.512 39.82s-20.377 39.82-45.512 39.82h-11.38v45.516c0 18.847 15.285 34.132 34.132 34.132z" />
<glyph unicode="&#xe01e;" d="M341.332 224v-91.020h79.647l0.001 91.020h-79.648zM193.424 224v-91.020h68.268l-0.001 91.020h-68.267zM91.024 224v-91.020h68.268l-0.001 91.020h-68.267zM318.58 246.756h125.156v-136.532h-125.156v136.532zM68.268 246.756h216.18v-136.532h-216.18v136.532zM34.132 280.891v-182.047c0-12.566 10.19-22.756 22.756-22.756h398.22c12.566 0 22.756 10.19 22.756 22.756v102.4l0.001 22.756v56.891h-443.733zM375.468 383.288h91.020c12.566 0 22.756-10.19 22.756-22.756v-22.756h-113.776v45.512zM238.932 383.288h91.020c12.566 0 22.756-10.19 22.756-22.756v-22.756h-113.776v45.512zM22.756 406.047h170.668c12.566 0 22.756-10.19 22.756-22.756v-68.265l295.82 0.001v-227.56c0-25.135-20.377-45.512-45.512-45.512l-420.976 0.001c-25.135-0.003-45.512 20.377-45.512 45.512v295.82c0 12.569 10.19 22.759 22.756 22.759z" />
<glyph unicode="&#xe01f;" d="M238.932 127.288c12.56 0 22.756-10.203 22.756-22.756s-10.196-22.756-22.756-22.756-22.756 10.203-22.756 22.756 10.197 22.756 22.756 22.756zM125.156 161.42c25.135 0 45.512-20.377 45.512-45.509 0-25.135-20.377-45.512-45.512-45.512-25.132 0-45.512 20.377-45.512 45.512 0 25.133 20.38 45.509 45.512 45.509zM375.468 206.932c25.135 0 45.512-20.377 45.512-45.512 0-25.132-20.377-45.509-45.512-45.509s-45.512 20.377-45.512 45.509c-0.003 25.135 20.377 45.512 45.512 45.512zM216.18 206.932c12.56 0 22.756-10.203 22.756-22.756s-10.193-22.756-22.756-22.756-22.756 10.203-22.756 22.756 10.193 22.756 22.756 22.756zM295.824 218.312c12.553 0 22.756-10.203 22.756-22.756s-10.203-22.756-22.756-22.756c-12.556 0-22.756 10.203-22.756 22.756s10.196 22.756 22.756 22.756zM147.912 241.068c12.56 0 22.756-10.196 22.756-22.756 0-12.553-10.193-22.756-22.756-22.756s-22.756 10.203-22.756 22.756c0 12.559 10.193 22.756 22.756 22.756zM250.312 275.2c12.553 0 22.756-10.193 22.756-22.756s-10.203-22.756-22.756-22.756c-12.56 0-22.756 10.193-22.756 22.756s10.193 22.756 22.756 22.756zM352.712 354.844c25.135 0 45.512-20.377 45.512-45.512s-20.377-45.512-45.512-45.512c-25.132 0-45.509 20.377-45.509 45.512-0.003 25.135 20.377 45.512 45.509 45.512zM204.8 366.224c25.132 0 45.512-20.377 45.512-45.512 0-25.132-20.377-45.512-45.512-45.512s-45.512 20.377-45.512 45.512c0 25.132 20.377 45.512 45.512 45.512zM443.735 377.6c12.553 0 22.753-10.196 22.753-22.756s-10.199-22.756-22.753-22.756c-12.556 0-22.756 10.196-22.756 22.756s10.197 22.756 22.756 22.756zM273.068 388.976c12.553 0 22.756-10.193 22.756-22.756s-10.203-22.756-22.756-22.756c-12.56 0-22.756 10.196-22.756 22.756s10.193 22.756 22.756 22.756zM22.756 480c12.56 0 22.756-10.196 22.756-22.756v-443.732h443.732c12.553 0 22.756-10.203 22.756-22.756s-10.203-22.756-22.756-22.756h-466.488c-0.784 0-1.561 0.034-2.335 0.109-0.762 0.091-1.511 0.2-2.251 0.343-0.74 0.147-1.474 0.343-2.188 0.559-0.715 0.209-1.405 0.475-2.089 0.765s-1.346 0.599-1.995 0.958c-0.649 0.353-1.271 0.731-1.876 1.143-0.599 0.412-1.183 0.846-1.751 1.311-0.574 0.465-1.105 0.955-1.617 1.467s-0.999 1.046-1.467 1.611c-0.465 0.581-0.899 1.155-1.311 1.758-0.406 0.599-0.793 1.236-1.146 1.879-0.356 0.656-0.671 1.311-0.955 1.992-0.287 0.69-0.549 1.374-0.768 2.089-0.215 0.721-0.406 1.442-0.556 2.176-0.15 0.743-0.259 1.511-0.343 2.267-0.074 0.774-0.108 1.552-0.108 2.329v466.488c0 12.56 10.196 22.756 22.756 22.756z" />
<glyph unicode="&#xe020;" d="M466.488 286.576h11.38c18.847 0 34.135-15.282 34.135-34.132v-34.135c0-18.85-15.285-34.135-34.135-34.135h-11.38v22.756h11.38c6.281 0 11.376 5.095 11.376 11.38v34.134c0 6.284-5.095 11.38-11.376 11.38h-11.38v22.752zM34.132 286.576h273.068v-22.756h-273.068c-6.284 0-11.376-5.095-11.376-11.38v-34.135c0-6.284 5.092-11.38 11.376-11.38h273.068v-22.756l-273.068 0.001c-18.85 0.006-34.132 15.291-34.132 34.142v34.132c0 18.85 15.282 34.132 34.132 34.132zM341.323 343.468h90.971c12.56 0 22.743-9.787 22.743-21.857v-142.074c0-1.886 0.059-6.441 0.059-6.441 0.119-3.971-0.521-7.905-3.575-10.839l-56.726-54.522c-4.443-4.268-11.642-4.268-16.081 0l-56.745 54.534c-3.053 2.935-3.39 6.512-3.394 10.843 0 0 0.006 4.542 0.006 6.428l0.002 142.071c0 12.069 10.18 21.857 22.74 21.857z" />
<glyph unicode="&#xe021;" d="M383.013 309.854c4.165 0 8.329-1.598 11.508-4.795l69.011-69.479c6.35-6.394 6.35-16.762 0-23.159l-69.011-69.479c-6.353-6.394-16.652-6.394-23.006 0v162.116c3.175 3.197 7.337 4.796 11.498 4.796zM128.987 309.854c4.162 0 8.326-1.598 11.501-4.795v-162.117c-6.353-6.394-16.652-6.394-23.006 0l-69.011 69.479c-6.353 6.397-6.353 16.765 0 23.159l69.011 69.479c3.178 3.196 7.34 4.795 11.505 4.795zM227.902 436.293c-3.447 0-6.244-2.797-6.244-6.244v-412.098c0-3.447 2.797-6.244 6.244-6.244h56.195c3.447 0 6.244 2.797 6.244 6.244v412.098c0 3.447-2.797 6.244-6.244 6.244h-56.195zM215.415 480h81.171c20.689 0 37.463-16.774 37.463-37.463v-437.073c0-20.689-16.774-37.463-37.463-37.463l-81.171-0.001c-20.689 0-37.463 16.774-37.463 37.463l-0.001 437.074c0 20.689 16.774 37.463 37.464 37.463z" />
<glyph unicode="&#xe022;" d="M417.87 42.399h63.107l-31.554-31.55-31.553 31.55zM420.976 70.4c-6.281 0-11.376-5.095-11.376-11.376v-56.891c0-6.288 5.095-11.38 11.376-11.38h56.891c6.288 0 11.38 5.092 11.38 11.38v56.891c0 6.281-5.092 11.376-11.38 11.376h-56.891zM206.049 149.073h103.024v-103.024h-103.024v103.024zM74.927 149.073h103.024v-103.024h-103.024v103.024zM206.049 277.073h103.024v-103.024h-103.024v103.024zM74.927 277.073h103.024v-103.024h-103.024v103.024zM206.049 405.073h103.024v-103.024h-103.024v103.024zM74.927 405.073h103.024v-103.024h-103.024v103.024zM56.888 434.488c-6.284 0-11.38-5.095-11.38-11.38v-398.22c0-6.288 5.095-11.38 11.38-11.38h329.959v420.98h-329.959zM449.42 437.598l31.554-31.554h-63.107l31.553 31.554zM420.976 457.244c-6.281 0-11.376-5.092-11.376-11.376v-56.891c0-6.284 5.095-11.376 11.376-11.376h56.891c6.288 0 11.38 5.092 11.38 11.376v56.891c0 6.284-5.092 11.376-11.38 11.376h-56.891zM34.132 480h443.732c18.854 0 34.136-15.282 34.136-34.132v-443.732c0-18.853-15.282-34.135-34.135-34.135l-443.733-0.001c-18.85 0-34.132 15.282-34.132 34.135v443.733c0 18.85 15.282 34.132 34.132 34.132z" />
<glyph unicode="&#xe023;" d="M34.132 280.888v-216.179c0-12.566 10.19-22.756 22.756-22.756h398.22c12.566 0 22.756 10.19 22.756 22.756l0.001 125.156v91.023h-443.733zM375.468 417.42h91.020c12.566 0 22.756-10.19 22.756-22.756v-34.132h-113.78l0.001 56.888zM238.932 417.42h91.020c12.566 0 22.756-10.19 22.756-22.756v-34.132h-113.776v56.888zM22.756 440.176h170.668c12.566 0 22.756-10.19 22.756-22.756v-79.644h295.82v-284.444c0-25.132-20.377-45.509-45.512-45.509l-420.976 0.001c-25.135 0-45.512 20.377-45.512 45.508v364.088c0 12.566 10.19 22.756 22.756 22.756z" />
<glyph unicode="&#xe024;" d="M113.776 252.482h147.912v-22.756h-147.912v22.756zM113.776 297.993h261.688v-22.756h-261.688v22.756zM113.776 343.505h182.047v-22.756h-182.047v22.756zM68.268 411.773c-12.566 0-22.756-10.19-22.756-22.756v-216.177c0-12.566 10.19-22.756 22.756-22.756h56.888v-0.075l25.728 0.001 45.374-74.159 46.314 74.159h7.74v0.075h193.424c12.563 0 22.753 10.19 22.753 22.756l-0.001 73.952v142.221c0 12.566-10.19 22.756-22.753 22.756h-375.467zM56.888 457.285h398.22c31.422 0 56.891-25.472 56.891-56.891v-238.932c0-31.416-25.466-56.891-56.891-56.891l-189.19-0.001-70.234-113.855-67.64 113.854-71.156 0.001c-31.416 0-56.888 25.472-56.888 56.891v238.932c0 31.417 25.472 56.892 56.888 56.892z" />
<glyph unicode="&#xe025;" d="M212.293 42.927c-1.723 0-3.122-1.396-3.122-3.122v-31.22c0-1.726 1.399-3.122 3.122-3.122h87.415c1.726 0 3.122 1.396 3.122 3.122v31.22c0 1.726-1.396 3.122-3.122 3.122h-87.415zM193.424 81.776h125.156c12.566 0 22.756-10.187 22.756-22.753v-68.268c0-12.566-10.19-22.756-22.756-22.756l-125.156 0.001c-12.566 0-22.756 10.19-22.756 22.756v68.268c0 12.569 10.187 22.752 22.756 22.752v0zM384 192.78c-1.726 0-3.122-1.396-3.122-3.122v-31.22c0-1.726 1.396-3.122 3.122-3.122h87.415c1.726 0 3.122 1.396 3.122 3.122v31.221c0 1.726-1.396 3.122-3.122 3.122l-87.415-0.001zM364.088 229.688h125.156c12.566 0 22.756-10.19 22.756-22.756v-68.268c0-12.566-10.19-22.753-22.756-22.753h-125.156c-12.566 0-22.753 10.187-22.753 22.753v68.268c0 12.569 10.187 22.756 22.753 22.756zM238.932 229.688h22.756v-45.512c0-5.891 4.477-10.733 10.212-11.317l1.164-0.062h56.892v-22.756h-56.888c-18.853 0-34.135 15.285-34.135 34.135l-0.001 45.512zM68.268 297.956h22.756v-22.756h-22.756v22.756zM56.888 309.332v-45.512h45.512v45.512h-45.512zM212.293 317.659c-1.723 0-3.122-1.399-3.122-3.122v-31.22c0-1.723 1.399-3.122 3.122-3.122h87.415c1.726 0 3.122 1.399 3.122 3.122l-0.001 31.22c0 1.723-1.396 3.122-3.122 3.122h-87.414zM193.424 354.844h125.156c12.566 0 22.756-10.187 22.756-22.756v-68.268c0-12.566-10.19-22.756-22.756-22.756l-125.156 0.001c-12.566 0-22.756 10.187-22.756 22.756v68.267c0 12.569 10.187 22.756 22.756 22.756zM68.268 354.844h22.756v-34.135h22.756v-22.756h45.512l-0.001-22.753h-45.515v-22.756h-22.756v-216.177c0-5.894 4.477-10.736 10.212-11.32l1.164-0.059h56.891v-22.756h-56.887c-18.85 0-34.132 15.282-34.132 34.135v216.18h-22.756v68.265h22.756v34.132zM40.585 442.537c-1.723 0-3.122-1.399-3.122-3.122v-31.22c0-1.723 1.399-3.122 3.122-3.122h87.415c1.723 0 3.122 1.399 3.122 3.122v31.22c0 1.723-1.399 3.122-3.122 3.122h-87.415zM22.756 480h125.156c12.566 0 22.756-10.187 22.756-22.756v-68.268c0-12.566-10.187-22.756-22.756-22.756h-125.156c-12.569 0.004-22.756 10.191-22.756 22.756v68.268c0 12.569 10.187 22.756 22.756 22.756z" />
<glyph unicode="&#xe026;" d="M130.844 360.532c2.916 0 5.832-1.090 8.055-3.272l96.696-94.77c4.449-4.361 4.449-11.436 0-15.8 0 0-18.463 0-44.428 0h-3.344v-170.811c0-6.169-5.101-11.167-11.395-11.167h-91.168c-6.294 0-11.395 5.001-11.395 11.167v170.811h-3.344c-25.965 0-44.425 0-44.425 0-4.452 4.364-4.452 11.439 0 15.8l96.693 94.77c2.22 2.186 5.139 3.272 8.055 3.272zM340.399 480l0.865-0.016h0.066l1.155-0.022c11.177-0.468 22.534-5.201 31.422-14.089l101.123-101.117c8.879-8.888 13.609-20.246 14.089-31.422l0.022-1.255h0.1v-329.943c0-18.85-15.288-34.135-34.135-34.135l-318.574-0.001c-18.85 0-34.135 15.285-34.135 34.135v34.132h45.512v-22.753h295.82v290.118l-0.087 1.745c-0.821 8.033-7.199 14.417-15.232 15.232l-1.748 0.087h-66.841c-16.49 0-29.868 13.371-29.868 29.868v61.159c0 0 0 3.915 0 5.688 0 9.422-7.643 17.061-17.068 17.061-1.908 0-5.688 0-5.688 0l-159.288 0.001v-46.839l-8.198 8.201c-5.276 5.276-13.162 5.957-17.598 1.511l-19.713-19.715v68.221c0 18.85 15.285 34.132 34.135 34.132l203.864 0.016z" />
<glyph unicode="&#xe027;" d="M129.605 168.651c2.928 0 5.854-1.118 8.089-3.353l8.089-8.089c4.471-4.471 4.471-11.714 0-16.184l-72.81-72.804c-4.464-4.471-11.707-4.471-16.178 0l-8.089 8.089c-4.468 4.471-4.468 11.714 0 16.184l72.807 72.804c2.232 2.235 5.16 3.353 8.092 3.353zM11.442 248.326h80.084c6.319 0 11.442-5.123 11.442-11.442v-11.442c0-6.319-5.123-11.442-11.442-11.442h-80.084c-6.319 0.007-11.442 5.127-11.442 11.445v11.442c0 6.319 5.123 11.439 11.442 11.439zM225.745 288.078c-5.854 0-11.714-2.232-16.178-6.697l-8.089-8.095c-8.938-8.932-8.938-23.424 0-32.356l24.557-24.564 40.451 40.451-24.557 24.557c-4.47 4.472-10.33 6.704-16.184 6.704zM228.286 319.866c14.642 0 29.278-5.582 40.448-16.752l226.516-226.513c22.331-22.338 22.331-58.562 0-80.899l-8.089-8.089c-22.344-22.338-58.568-22.338-80.912 0l-226.5 226.509c-22.341 22.341-22.341 58.562 0 80.902l8.089 8.089c11.171 11.171 25.806 16.753 40.448 16.753zM404.171 420.346c2.928 0 5.857-1.118 8.092-3.353l8.089-8.089c4.471-4.471 4.471-11.714 0-16.184l-72.798-72.804c-4.471-4.471-11.71-4.471-16.181 0l-8.089 8.089c-4.471 4.471-4.471 11.714 0 16.184l72.798 72.804c2.235 2.235 5.161 3.353 8.089 3.353zM43.679 447.269c2.928 0 5.86-1.118 8.089-3.35l80.899-80.902c4.468-4.464 4.468-11.707 0-16.178l-8.089-8.089c-4.468-4.471-11.714-4.471-16.184 0l-80.893 80.896c-4.471 4.471-4.471 11.714 0 16.184l8.089 8.089c2.236 2.233 5.161 3.35 8.089 3.35zM240.253 477.14h11.442c6.319 0 11.439-5.123 11.439-11.442v-80.084c0-6.319-5.12-11.442-11.439-11.442h-11.442c-6.316 0-11.442 5.123-11.442 11.442v80.084c0 6.319 5.123 11.442 11.442 11.442z" />
<glyph unicode="&#xe028;" d="M227.556 104.532h45.509v-45.509l-45.509 0.001v45.508zM159.285 104.532h45.509v-45.509l-45.509 0.001v45.508zM91.020 104.532h45.512v-45.509l-45.512 0.001v45.508zM295.817 172.803h113.78v-113.777l-113.78 0.001v113.776zM227.556 172.803h45.509v-45.512h-45.509v45.512zM159.285 172.803h45.509v-45.512h-45.509v45.512zM91.020 172.803h45.512v-45.512h-45.512v45.512zM364.085 241.071h45.512v-45.512h-45.512v45.512zM295.817 241.071h45.515v-45.512h-45.515v45.512zM227.556 241.071h45.509v-45.512h-45.509v45.512zM159.285 241.071h45.509v-45.512h-45.509v45.512zM45.512 275.203v-238.942c0-6.275 5.086-11.373 11.376-11.373h398.217c6.284 0 11.38 5.098 11.38 11.373v238.946l-420.973-0.001zM45.512 400.356h56.891v-11.376c0-25.138 20.377-45.509 45.506-45.509 25.138 0 45.515 20.371 45.515 45.509v11.376h125.15v-11.376c0-25.138 20.377-45.509 45.512-45.509s45.512 20.371 45.512 45.509v11.376h56.885c25.141 0 45.518-20.377 45.518-45.509v-329.953c0-25.135-20.377-45.515-45.518-45.515l-420.971 0.001c-25.135 0-45.512 20.38-45.512 45.514v329.953c0 25.132 20.377 45.509 45.512 45.509zM147.909 468.62c12.569 0 22.756-10.187 22.756-22.753v-56.888c0-12.569-10.187-22.756-22.756-22.756-12.566 0-22.753 10.187-22.753 22.756v56.889c0 12.569 10.187 22.752 22.753 22.752zM364.085 468.62c12.569 0 22.759-10.187 22.759-22.753v-56.888c0-12.569-10.19-22.756-22.759-22.756s-22.753 10.187-22.753 22.756v56.889c0 12.569 10.184 22.752 22.753 22.752z" />
<glyph unicode="&#xe029;" d="M337.542 130.22h167.845l-62.364-70.238v-91.96l-43.111 29.243v62.717l-62.37 70.238zM32.256 143.382h244.586c17.808 0 32.247-14.439 32.247-32.25v-48.372c0-17.814-14.439-32.247-32.247-32.247l-244.586 0.001c-17.811-0.003-32.256 14.43-32.256 32.247v48.372c0 17.81 14.445 32.249 32.256 32.249zM339.562 153.388h163.809c4.764 0 8.626-3.856 8.626-8.62 0-2.676-1.221-5.073-3.141-6.653l-0.272-0.203v0.031h-174.277l-0.228 0.175c-1.92 1.58-3.144 3.974-3.144 6.653-0.002 4.758 3.86 8.617 8.627 8.617zM32.256 280.436h244.586c17.808 0 32.247-14.439 32.247-32.25v-48.372c0-17.811-14.439-32.247-32.247-32.247l-244.586 0.001c-17.811 0-32.256 14.436-32.256 32.246v48.372c0 17.81 14.445 32.25 32.256 32.25zM429.415 378.989h48.99c3.381 0 6.119-3.041 6.119-6.796v-103.911h1.798c13.961 0 23.883 0 23.883 0 2.388-2.654 2.388-6.956 0-9.609l-51.965-57.654c-1.202-1.33-2.772-1.992-4.333-1.992-1.57 0-3.141 0.662-4.33 1.992l-51.965 57.65c-2.388 2.657-2.388 6.959 0 9.609 0 0 9.925 0 23.874 0h1.798v103.915c0.003 3.755 2.75 6.796 6.131 6.796zM32.256 417.492h244.586c17.808 0 32.247-14.436 32.247-32.247v-48.375c0-17.811-14.439-32.247-32.247-32.247l-244.586 0.001c-17.811-0.003-32.256 14.433-32.256 32.244v48.375c0 17.813 14.445 32.249 32.256 32.249zM375.321 479.978c1.561 0 3.131-0.662 4.321-1.992l51.968-57.653c2.401-2.657 2.401-6.959 0-9.612 0 0-9.925 0-23.87 0h-1.798v-103.911c0-0.94-0.178-1.829-0.481-2.644l-0.044-0.081-0.075-0.247c-0.94-2.282-3.109-3.884-5.641-3.884h-48.855c-3.381 0-6.119 2.847-6.119 6.363l-0.022 104.404h-1.798c-13.952 0-23.874 0-23.874 0-2.401 2.657-2.401 6.959 0 9.612l51.948 57.653c1.199 1.33 2.77 1.992 4.34 1.992z" />
<glyph unicode="&#xe02a;" d="M42.146 106.427c-4.649 0-8.423-3.999-8.423-8.932v-65.47c0-4.926 3.774-8.932 8.423-8.932h280.982c4.655 0 8.429 4.005 8.429 8.932v65.47c0 4.933-3.774 8.932-8.429 8.932h-280.982zM382.729 234.143h124.36l-46.208-52.049v-68.143l-31.944 21.669v46.474l-46.208 52.049zM42.146 249.275c-4.649 0-8.423-4.002-8.423-8.932v-65.47c0-4.936 3.774-8.929 8.423-8.929h280.982c4.655 0 8.429 3.993 8.429 8.929v65.47c0 4.93-3.774 8.932-8.429 8.932h-280.982zM384.222 251.317h121.385c3.522 0 6.381-2.863 6.381-6.391 0-1.986-0.905-3.756-2.323-4.93l-0.197-0.153v0.028l-129.311 0.128c-1.417 1.171-2.323 2.944-2.323 4.93-0.003 3.525 2.854 6.388 6.388 6.388zM453.27 391.771h34.835c2.407 0 4.352-2.16 4.352-4.83v-73.897h1.286c9.915 0 16.98 0 16.98 0 1.701-1.886 1.701-4.945 0-6.831l-36.961-40.997c-0.852-0.943-1.964-1.411-3.075-1.411s-2.238 0.468-3.088 1.411l-36.948 40.997c-1.701 1.886-1.701 4.948 0 6.831 0 0 7.056 0 16.98 0h1.274v73.897c0 2.669 1.952 4.83 4.365 4.83zM42.146 395.102c-4.649 0-8.423-3.999-8.423-8.929v-65.474c0-4.933 3.774-8.923 8.423-8.923h280.982c4.655 0 8.429 3.993 8.429 8.923v65.471c0 4.93-3.774 8.929-8.429 8.929h-280.982zM33.723 430.814h297.834c18.616 0 33.711-15.991 33.711-35.712v-83.328c0-12.944-6.5-24.279-16.228-30.545l-1.155-0.706 1.155-0.706c9.728-6.263 16.228-17.595 16.228-30.539v-83.331c0-12.947-6.5-24.279-16.228-30.542l-1.155-0.709 1.155-0.709c9.728-6.263 16.228-17.598 16.228-30.542v-83.328c0-19.718-15.095-35.709-33.711-35.709h-297.834c-18.622 0.001-33.723 15.988-33.723 35.707v83.328c0 12.944 6.5 24.279 16.24 30.542l1.155 0.709-1.155 0.709c-9.74 6.262-16.24 17.594-16.24 30.541v83.331c0 12.944 6.5 24.276 16.24 30.539l1.155 0.706-1.155 0.706c-9.74 6.268-16.24 17.601-16.24 30.548v83.328c0 19.721 15.101 35.712 33.723 35.712zM414.792 463.591c1.121 0 2.235-0.475 3.084-1.414l36.951-41.001c1.701-1.886 1.701-4.945 0-6.831 0 0-7.059 0-16.98 0h-1.277l0.001-73.896c0-0.665-0.119-1.302-0.337-1.879l-0.031-0.062-0.066-0.172c-0.652-1.627-2.201-2.763-4.002-2.763h-34.744c-2.401 0-4.343 2.026-4.343 4.524l-0.022 74.252h-1.277c-9.925 0-16.98 0-16.98 0-1.701 1.886-1.701 4.942 0 6.831l36.951 41.001c0.846 0.935 1.96 1.41 3.072 1.41z" />
<glyph unicode="&#xe02b;" d="M109.521 72.948h227.4c16.568 0 29.993-13.424 29.993-29.983v-44.978c0-16.559-13.428-29.983-29.993-29.983l-227.4-0.001c-16.568 0-29.986 13.428-29.986 29.983v44.978c-0.003 16.559 13.418 29.984 29.986 29.984zM33.021 132.499h7.677v-8.248c0-19.874-2.847-36.695 17.236-42.302l0.153 0.29 0.087-0.287c-20.084-5.607-17.477-23.003-17.477-42.877v-19.453h-7.677c-17.811 0-32.259 14.442-32.259 32.253v48.375c0.001 17.81 14.449 32.249 32.26 32.249zM109.521 200.389h227.4c16.568 0 29.993-13.424 29.993-29.986v-44.978c0-16.562-13.428-29.983-29.993-29.983l-227.4-0.001c-16.568 0-29.986 13.424-29.986 29.983v44.978c-0.003 16.565 13.418 29.987 29.986 29.987zM388.817 231.68h117.782l-43.77-49.289v-64.537l-30.255 20.521v44.016l-43.757 49.289zM390.222 247.942h114.969c3.337 0 6.044-2.71 6.044-6.050 0-1.883-0.849-3.562-2.204-4.67l-0.187-0.147v0.025l-122.474 0.122c-1.342 1.108-2.201 2.791-2.201 4.67 0.003 3.34 2.716 6.050 6.053 6.050v0zM33.021 269.568h7.677v-3.821c0-19.874-1.289-36.689 18.797-42.299l-0.197-0.287 0.197-0.29c-20.087-5.607-18.797-22.425-18.797-42.299v-23.883h-7.677c-17.811 0-32.259 14.439-32.259 32.25v48.379c0 17.811 14.448 32.25 32.259 32.25v0zM109.521 327.83h227.4c16.568 0 29.993-13.424 29.993-29.983v-44.978c0-16.562-13.428-29.986-29.993-29.986l-227.4-0.001c-16.568 0-29.986 13.428-29.986 29.986v44.976c-0.003 16.561 13.418 29.986 29.986 29.986zM33.021 406.634h244.599c17.811 0 32.253-14.439 32.253-32.25v-8.023h-219.845c-27.245 0-49.33-19.831-49.33-44.291v-28.313h-7.677c-17.811 0-32.259 14.439-32.259 32.25v48.377c0 17.811 14.448 32.25 32.259 32.25zM453.285 409.129h34.379c2.366 0 4.296-2.139 4.296-4.77v-72.923h1.255c9.794 0 16.762 0 16.762 0 1.68-1.861 1.68-4.88 0-6.74l-36.471-40.467c-0.84-0.93-1.939-1.396-3.031-1.396-1.102 0-2.204 0.465-3.044 1.396l-36.474 40.464c-1.68 1.864-1.68 4.88 0 6.74 0 0 6.968 0 16.762 0h1.255v72.925c0 2.635 1.929 4.77 4.296 4.77l0.015 0.001zM415.319 480c1.102 0 2.192-0.462 3.044-1.396l36.461-40.464c1.68-1.861 1.68-4.88 0-6.74 0 0-6.959 0-16.752 0h-1.264v-72.923c0-0.662-0.119-1.286-0.337-1.858l-0.031-0.059-0.056-0.172c-0.656-1.605-2.17-2.732-3.949-2.732h-34.301c-2.357 0-4.286 2.004-4.286 4.468l-0.012 73.275h-1.264c-9.794 0-16.762 0-16.762 0-1.67 1.864-1.67 4.88 0 6.74l36.474 40.464c0.831 0.935 1.933 1.397 3.035 1.397z" />
<glyph unicode="&#xe02c;" d="M78.049 72.585h246.637c10.343 0 18.729-8.392 18.729-18.732v-65.561c0-10.343-8.389-18.732-18.729-18.732l-246.637 0.001c-10.349 0-18.738 8.392-18.738 18.732v65.561c0 10.34 8.385 18.731 18.738 18.731zM18.725 131.902h9.369v-24.976c0-8.407 2.769-16.165 7.44-22.416l0.796-0.999-0.796-0.999c-4.67-6.25-7.44-14.011-7.44-22.416v-40.585l-9.369 0.001c-10.34 0-18.729 8.386-18.729 18.732v74.927c0.004 10.34 8.39 18.731 18.729 18.731zM78.049 200.585h246.637c10.343 0 18.729-8.392 18.729-18.732v-65.561c0-10.346-8.389-18.732-18.729-18.732l-246.637 0.001c-10.349 0-18.738 8.386-18.738 18.732v65.561c0 10.34 8.385 18.731 18.738 18.731zM377.544 213.207h129.367l-48.066-54.135 0.001-70.877-33.236 22.537v48.34l-48.066 54.135zM379.092 231.068h126.267c3.665 0 6.64-2.975 6.64-6.644 0-2.064-0.937-3.912-2.42-5.132l-0.206-0.159v0.025l-134.503 0.134c-1.483 1.221-2.42 3.066-2.42 5.132-0.001 3.669 2.977 6.644 6.642 6.644v0zM18.725 269.268h9.369v-34.341c0-7.761 2.354-14.967 6.403-20.945l0.643-0.908-0.643-0.908c-4.046-5.982-6.403-13.19-6.403-20.945v-34.341l-9.369-0.002c-10.34 0-18.729 8.389-18.729 18.732l0.001 74.923c0.003 10.347 8.389 18.735 18.728 18.735zM78.049 325.463h246.637c10.343 0 18.729-8.389 18.729-18.732v-65.561c0-10.343-8.389-18.732-18.729-18.732l-246.637 0.001c-10.349 0-18.738 8.389-18.738 18.732v65.561c0 10.343 8.385 18.731 18.738 18.731zM447.401 399.441h38.325c2.641 0 4.789-2.379 4.789-5.317v-81.28h1.405c10.917 0 18.672 0 18.672 0 1.876-2.079 1.876-5.442 0-7.518l-40.642-45.1c-0.937-1.036-2.17-1.555-3.39-1.555-1.233 0-2.454 0.518-3.394 1.555l-40.644 45.101c-1.867 2.076-1.867 5.438 0 7.518 0 0 7.764 0 18.682 0h1.408v81.279c0 2.938 2.147 5.317 4.789 5.317zM18.725 406.634h271.616c10.34 0 18.725-8.389 18.725-18.732v-31.22l-243.505 0.001c-20.689 0-37.463-16.777-37.463-37.463v-24.976h-9.373c-10.339 0-18.725 8.389-18.725 18.728v74.927c0 10.346 8.386 18.735 18.725 18.735zM405.092 478.439c1.224 0 2.444-0.518 3.381-1.558l40.651-45.1c1.867-2.076 1.867-5.445 0-7.518 0 0-7.764 0-18.682 0h-1.396v-81.28c0-0.734-0.14-1.43-0.381-2.070l-0.034-0.066-0.066-0.194c-0.731-1.786-2.42-3.041-4.405-3.041h-38.219c-2.638 0-4.777 2.226-4.777 4.976l-0.022 81.67h-1.405c-10.917 0-18.682 0-18.682 0-1.867 2.076-1.867 5.442 0 7.518l40.646 45.105c0.937 1.040 2.158 1.558 3.391 1.558z" />
<glyph unicode="&#xe02d;" d="M389.117 77.221c13.203 0 23.899-10.699 23.899-23.892s-10.699-23.889-23.899-23.889c-13.19 0-23.883 10.696-23.883 23.889s10.693 23.892 23.883 23.892zM85.332 107.938c-5.654 0-10.243-4.58-10.243-10.231v-75.099c0-5.66 4.592-10.237 10.243-10.237h341.339c5.654 0 10.24 4.58 10.24 10.237v75.099c0 5.654-4.589 10.231-10.24 10.231h-341.339zM389.117 247.892c13.203 0 23.899-10.696 23.899-23.892s-10.699-23.889-23.899-23.889c-13.19 0-23.883 10.696-23.883 23.889s10.693 23.892 23.883 23.892zM85.332 271.791c-5.654 0-10.243-4.592-10.243-10.243v-75.092c0-5.654 4.592-10.243 10.243-10.243h341.339c5.654 0 10.24 4.592 10.24 10.243v75.089c0 5.654-4.589 10.243-10.24 10.243h-341.339zM389.117 421.972c13.203 0 23.899-10.696 23.899-23.892s-10.699-23.892-23.899-23.892c-13.19 0-23.883 10.696-23.883 23.892s10.693 23.892 23.883 23.892zM85.332 439.037c-5.654 0-10.243-4.58-10.243-10.231v-75.099c0-5.66 4.592-10.237 10.243-10.237h341.339c5.654 0 10.24 4.58 10.24 10.237v75.099c0 5.654-4.589 10.231-10.24 10.231h-341.339zM75.086 480h361.825c22.622 0 40.951-18.341 40.951-40.963v-95.566c0-14.848-7.892-27.851-19.709-35.038l-1.42-0.812 1.42-0.812c11.817-7.177 19.709-20.177 19.709-35.022v-95.579c0-14.845-7.892-27.845-19.709-35.028l-1.42-0.812 1.42-0.805c11.817-7.193 19.709-20.193 19.709-35.038v-95.572c0-22.622-18.329-40.957-40.951-40.957l-361.825 0.001c-22.622 0-40.951 18.335-40.951 40.957v95.572c0 14.845 7.892 27.845 19.712 35.038l1.408 0.805-1.408 0.812c-11.82 7.184-19.712 20.183-19.712 35.028v95.582c0 14.845 7.892 27.845 19.712 35.022l1.408 0.812-1.408 0.812c-11.82 7.187-19.712 20.19-19.712 35.038v95.562c0.004 22.622 18.329 40.963 40.951 40.963z" />
<glyph unicode="&#xe02e;" d="M34.16 432.331h377.207l-2.148-1.814c-13.927-11.813-30.208-26.63-47.891-44.588l-1.383-1.424-305.289 0.001c-3.771 0-6.831-3.056-6.831-6.831v-341.613c0-3.771 3.060-6.828 6.831-6.828h341.62c3.768 0 6.825 3.056 6.825 6.828l-0.001 183.239 0.933 0.955c13.306 13.365 27.067 26.162 40.982 37.907l5.919 4.926v-247.518c0-18.869-15.298-34.167-34.17-34.167l-382.604 0.002c-18.866 0-34.16 15.298-34.16 34.167v382.598c0 18.869 15.294 34.16 34.16 34.16zM502.846 466.597l9.154-133.859c-111.909-38.325-253.824-254.576-253.824-254.576l-154.827 152.547 69.448 58.068 77.418-88.798c120.741 186.419 252.631 266.618 252.631 266.618z" />
<glyph unicode="&#xe02f;" d="M256.003 359.533c74.846 0 135.53-60.684 135.53-135.53 0-74.849-60.684-135.53-135.53-135.53-74.852 0-135.521 60.681-135.521 135.53 0 74.846 60.669 135.53 135.521 135.53zM256.003 427.295c-112.268 0-203.295-91.014-203.295-203.289 0-112.272 91.027-203.292 203.295-203.292 112.278 0 203.289 91.017 203.289 203.292 0 112.272-91.011 203.289-203.289 203.289zM256.003 480c141.381 0 255.991-114.616 255.991-255.997 0-141.39-114.61-256.003-255.991-256.003-141.374 0-255.997 114.616-255.997 256.003 0 141.384 114.623 255.997 255.997 255.997z" />
<glyph unicode="&#xe030;" d="M147.912 47.644h113.776v-22.75h-113.776v22.75zM102.4 47.644h22.756v-22.75h-22.756v22.75zM182.047 104.529h170.671v-22.759h-170.671v22.759zM182.047 161.42h204.8v-22.756h-204.8v22.756zM147.912 218.309h193.424v-22.753h-193.424v22.753zM102.4 218.309h22.756v-22.753h-22.756v22.753zM21.854 241.065c0 0 11.433 0 30.723 0h0.496v-223.116c0-10.343 8.386-18.732 18.732-18.732h368.39c10.343 0 18.732 8.389 18.732 18.732v223.116h0.49c19.297 0 30.726 0 30.726 0v-227.556c0-25.135-20.452-45.506-45.684-45.506h-376.916c-25.234 0-45.689 20.371-45.689 45.506v227.556zM375.471 388.973l39.799-45.512 39.842 45.512h-79.641zM327.805 479.997h150.057c18.857 0 34.139-15.282 34.139-34.135v-147.906c0-18.853-15.282-34.135-34.139-34.135l-150.057-0.001v216.177zM34.135 479.997h271.813v-216.176l-271.813-0.001c-18.85 0-34.135 15.282-34.135 34.136v147.905c0 18.854 15.285 34.136 34.135 34.136z" />
<glyph unicode="&#xe031;" d="M105.931 211.968v-24.679c-3.706-2.86-7.724-5.304-12.063-7.343-4.34-2.036-9.129-3.056-14.367-3.056-6.294 0-10.98 1.286-14.046 3.846-3.069 2.569-4.608 6.394-4.608 11.47 0 4.499 1.327 8.030 3.968 10.599 2.647 2.566 6.11 4.458 10.396 5.676 3.6 1.002 8.479 1.767 14.642 2.298s11.529 0.927 16.078 1.189zM189.98 242.37c7.777 0 13.412-2.738 16.905-8.214 3.49-5.479 5.239-13.502 5.239-24.089 0-11.586-2.341-20.093-7.024-25.519-4.683-5.42-11.152-8.133-19.406-8.133-3.865 0-7.318 0.372-10.356 1.108-3.044 0.743-6.681 2.067-10.911 3.968v50.794c3.809 2.966 7.936 5.385 12.382 7.262 4.439 1.88 8.828 2.823 13.171 2.823zM287.919 256.181c-13.068 0-23.583-4.127-31.544-12.382-7.964-8.258-11.945-19.634-11.945-34.129 0-7.78 1.058-14.576 3.175-20.396 2.117-5.822 5.108-10.636 8.969-14.445 3.809-3.812 8.382-6.653 13.73-8.529 5.342-1.879 11.217-2.816 17.617-2.816 5.026 0 9.775 0.659 14.249 1.982 4.468 1.324 9.188 3.175 14.164 5.554v16.428h-0.799c-1.105-0.896-2.613-1.97-4.521-3.209-1.904-1.246-3.943-2.423-6.11-3.534-2.488-1.268-5.289-2.301-8.411-3.097-3.125-0.793-6.191-1.189-9.207-1.189-8.679 0-15.41 2.872-20.202 8.61-4.783 5.744-7.18 13.958-7.18 24.648 0 11.005 2.451 19.35 7.343 25.041 4.892 5.685 11.576 8.529 20.040 8.529 4.605 0 9.325-0.952 14.164-2.857 4.842-1.904 9.541-4.627 14.086-8.176h0.799v16.587c-4.074 2.064-8.56 3.812-13.456 5.242-4.896 1.42-9.885 2.138-14.961 2.138zM82.201 256.256c-5.345 0-10.768-0.471-16.272-1.427-5.504-0.952-9.709-1.826-12.619-2.619v-15.157h0.793c5.136 1.957 10.106 3.45 14.92 4.483 4.817 1.033 9.182 1.548 13.093 1.548 3.228 0 6.325-0.212 9.288-0.634 2.963-0.425 5.504-1.243 7.614-2.46 2.223-1.271 3.934-3.016 5.123-5.239 1.193-2.226 1.786-5.026 1.786-8.414v-2.301c-8.676-0.421-16.799-1.058-24.367-1.904-7.564-0.846-14.049-2.457-19.447-4.839-5.342-2.382-9.453-5.651-12.341-9.803-2.882-4.152-4.324-9.591-4.324-16.312 0-8.201 2.775-14.945 8.332-20.236 5.554-5.292 12.329-7.936 20.318-7.936 4.34 0 8.126 0.409 11.348 1.23 3.228 0.824 6.088 1.842 8.573 3.056 2.12 0.955 4.299 2.238 6.547 3.849 2.254 1.614 4.040 2.869 5.36 3.771v-9.444h14.842l0.002 60.155c0 5.713-0.874 10.502-2.619 14.367-1.748 3.862-4.286 7.009-7.618 9.444-3.387 2.488-7.393 4.243-12.026 5.276-4.63 1.031-10.062 1.546-16.306 1.546zM149.504 288.955v-123.492h13.968l0.955 4.127c3.65-2.014 7.349-3.612 11.111-4.805 3.753-1.189 8.145-1.783 13.178-1.783 5.398 0 10.343 1.046 14.839 3.134s8.626 5.229 12.382 9.406c3.547 4.018 6.363 8.994 8.454 14.92 2.089 5.925 3.134 12.591 3.134 19.999 0 14.654-3.031 26.003-9.088 34.048-6.057 8.039-14.327 12.060-24.801 12.060-5.872 0-11.164-1.099-15.872-3.294-4.711-2.195-9.154-5.014-13.334-8.451v44.131h-14.926zM34.135 366.224h443.735c18.853 0 34.132-15.285 34.132-34.135v-216.18c0-18.85-15.279-34.132-34.132-34.132l-443.735-0.001c-18.85 0-34.135 15.282-34.135 34.133v216.179c0 18.851 15.285 34.136 34.135 34.136z" />
<glyph unicode="&#xe032;" d="M424.582 124.098c-3.447 0-6.244-2.794-6.244-6.238v-31.223c0-3.45 2.797-6.244 6.244-6.244h49.951c3.447 0 6.241 2.794 6.241 6.244v31.223c0 3.447-2.794 6.238-6.241 6.238h-49.951zM37.463 124.098c-3.447 0-6.244-2.794-6.244-6.238v-31.223c0-3.45 2.797-6.244 6.244-6.244h49.951c3.447 0 6.241 2.794 6.241 6.244v31.223c0 3.447-2.794 6.238-6.241 6.238h-49.951zM424.582 205.271c-3.447 0-6.244-2.797-6.244-6.244v-31.222c0-3.447 2.797-6.244 6.244-6.244h49.951c3.447 0 6.241 2.797 6.241 6.244v31.223c0 3.447-2.794 6.244-6.241 6.244l-49.951-0.001zM37.463 205.271c-3.447 0-6.244-2.797-6.244-6.244l0.001-31.222c0-3.447 2.797-6.244 6.244-6.244h49.951c3.447 0 6.241 2.797 6.241 6.244l-0.001 31.223c0 3.447-2.794 6.244-6.241 6.244l-49.951-0.001zM424.582 286.439c-3.447 0-6.244-2.797-6.244-6.244v-31.216c0-3.45 2.797-6.25 6.244-6.25h49.951c3.447 0 6.241 2.797 6.241 6.25v31.216c0 3.447-2.794 6.244-6.241 6.244h-49.951zM37.463 286.439c-3.447 0-6.244-2.797-6.244-6.244v-31.216c0.001-3.45 2.798-6.247 6.244-6.247h49.951c3.447 0 6.241 2.797 6.241 6.25v31.213c0 3.447-2.794 6.244-6.241 6.244h-49.951zM204.8 309.332l136.529-85.329-136.529-85.332v170.661zM136.532 354.841c-6.284 0-11.38-5.092-11.38-11.376v-238.929c0-6.284 5.095-11.383 11.38-11.383h238.929c6.288 0 11.383 5.098 11.383 11.383v238.932c0 6.281-5.095 11.376-11.383 11.376h-238.929zM424.582 367.613c-3.447 0-6.244-2.797-6.244-6.25v-31.216c0-3.447 2.797-6.244 6.244-6.244h49.951c3.447 0 6.241 2.797 6.241 6.244v31.219c0 3.45-2.794 6.25-6.241 6.25h-49.951zM37.463 367.613c-3.447 0-6.244-2.797-6.244-6.25v-31.216c0-3.447 2.797-6.244 6.244-6.244h49.951c3.447 0 6.241 2.797 6.241 6.244v31.219c0 3.45-2.794 6.25-6.241 6.25h-49.951zM15.61 414.436h480.777c8.623 0 15.613-6.99 15.613-15.607v-349.658c0-8.617-6.99-15.607-15.613-15.607h-480.777c-8.62 0-15.61 6.99-15.61 15.607v349.658c0 8.617 6.99 15.607 15.61 15.607z" />
<glyph unicode="&#xe033;" d="M215.415 99.122h221.655v-28.094h-221.655v28.094zM129.561 111.51c-14.595 0-26.434-11.835-26.434-26.437 0-14.598 11.838-26.434 26.434-26.434 14.601 0 26.44 11.835 26.44 26.434-0.003 14.602-11.839 26.437-26.44 26.437zM129.561 142.829c31.9 0 57.756-25.856 57.756-57.756 0-31.897-25.859-57.756-57.756-57.756-31.894 0-57.756 25.859-57.756 57.756 0 31.9 25.859 57.756 57.756 57.756zM215.415 236.488h221.655v-28.098h-221.655v28.098zM106.455 247.099v-46.205h46.208v46.205h-46.208zM71.805 281.756h115.512v-115.512h-115.512v115.512zM362.146 380.098l28.085-34.341 28.11 34.341h-56.195zM337.168 420.683h93.665c6.893 0 12.488-6.987 12.488-15.61v-74.927c0-8.62-5.595-15.607-12.488-15.607h-93.665v106.144zM81.171 420.683h240.39v-106.146h-240.39c-6.893 0-12.488 6.987-12.488 15.607v74.929c0 8.623 5.594 15.61 12.488 15.61zM31.22 455.024c-3.447 0-6.244-2.797-6.244-6.244v-449.561c0-3.45 2.794-6.244 6.244-6.244h449.561c3.45 0 6.244 2.794 6.244 6.244l-0.001 449.561c0 3.447-2.794 6.244-6.244 6.244h-449.56zM24.976 480h462.049c13.796 0 24.976-11.183 24.976-24.976v-462.049c0-13.796-11.18-24.976-24.976-24.976l-462.049 0.001c-13.793 0-24.976 11.18-24.976 24.976v462.048c0 13.793 11.183 24.976 24.976 24.976z" />
<glyph unicode="&#xe034;" d="M383.903 103.009c-23.536 0-42.633-19.091-42.633-42.633 0-23.546 19.097-42.636 42.633-42.636 23.552 0 42.633 19.091 42.633 42.636 0.001 23.542-19.081 42.633-42.633 42.633zM128.097 103.009c-23.546 0-42.633-19.091-42.633-42.633 0-23.546 19.088-42.636 42.633-42.636s42.633 19.091 42.633 42.636c0.003 23.542-19.087 42.633-42.633 42.633zM256.003 259.337c-11.77 0-21.317-9.544-21.317-21.317 0-11.776 9.55-21.32 21.317-21.32 11.776 0 21.31 9.544 21.31 21.32 0.001 11.777-9.534 21.317-21.31 21.317zM151.252 480l104.91-167.889 104.91 167.889c28.354-28.812 51.197-93.946 37.788-124.169l-94.535-120.789 53.723-85.991 2.779 0.79c7.383 1.901 15.113 2.91 23.081 2.91 51.019 0 92.375-41.36 92.375-92.375 0-51.019-41.356-92.375-92.375-92.375s-92.38 41.355-92.38 92.374c0 17.533 4.898 33.939 13.378 47.9l1.043 1.63-49.787 63.613-49.964-63.841 0.902-1.402c8.489-13.961 13.371-30.367 13.371-47.9 0.001-51.019-41.355-92.375-92.374-92.375s-92.375 41.356-92.375 92.375c0 51.025 41.356 92.375 92.375 92.375 7.973 0 15.71-1.005 23.090-2.91l3.047-0.859 53.779 86.060-94.543 120.79c-13.405 30.223 9.429 95.357 37.782 124.169z" />
<glyph unicode="&#xe035;" d="M263.664 96h156.444c3.931 0 7.109-3.188 7.109-7.109v-14.224c0-3.934-3.181-7.112-7.109-7.112l-156.444 0.001c-3.918 0-7.106 3.181-7.106 7.112v14.224c0.001 3.92 3.188 7.108 7.106 7.108zM263.664 160h156.444c3.931 0 7.109-3.188 7.109-7.109v-14.227c0-3.927-3.181-7.109-7.109-7.109l-156.444 0.001c-3.918 0-7.106 3.184-7.106 7.109v14.227c0.001 3.92 3.188 7.108 7.106 7.108zM263.664 224h156.444c3.931 0 7.109-3.188 7.109-7.109v-14.227c0-3.927-3.181-7.109-7.109-7.109l-156.444 0.001c-3.918 0-7.106 3.184-7.106 7.109v14.227c0.001 3.92 3.188 7.108 7.106 7.108zM263.664 288h64c3.931 0 7.109-3.188 7.109-7.112v-14.224c0-3.931-3.181-7.112-7.109-7.112h-64c-3.918 0-7.106 3.181-7.106 7.112v14.224c0.001 3.924 3.188 7.112 7.106 7.112zM85.891 359.112h64c3.924 0 7.112-3.188 7.112-7.112v-14.224c0-3.931-3.188-7.112-7.112-7.112h-64c-3.924 0-7.109 3.181-7.109 7.112v14.224c-0.003 3.924 3.185 7.112 7.109 7.112zM217.531 369.68v-362.5h254.732l0.001 249.835-0.081 1.499c-0.696 6.915-6.194 12.416-13.112 13.125l-1.499 0.069h-57.556c-14.208 0-25.722 11.514-25.722 25.722v52.653c0 0 0 3.381 0 4.901 0 8.117-6.581 14.695-14.695 14.695-1.652 0-4.901 0-4.901 0l-137.167 0.001zM39.752 440.791v-362.499h138.583v60.372l-92.444 0.001c-3.924 0-7.109 3.184-7.109 7.112v14.223c0 3.924 3.188 7.109 7.109 7.109h92.444v35.556h-92.444c-3.924 0-7.109 3.184-7.109 7.112v14.223c0 3.924 3.188 7.112 7.109 7.112h92.444v35.556h-92.444c-3.924 0-7.109 3.181-7.109 7.112v14.22c0 3.924 3.188 7.112 7.109 7.112h92.444v84.367c0 12.172 7.402 22.619 17.951 27.083l0.222 0.075v14.558c0 0 0 3.381 0 4.901 0 8.117-6.581 14.695-14.695 14.695-1.652 0-4.901 0-4.901 0h-137.16zM205.493 480l0.743-0.012h0.069l0.993-0.022c9.625-0.409 19.403-4.48 27.055-12.132l58.961-58.958 91.761-0.022c9.625-0.409 19.403-4.48 27.055-12.132l87.071-87.077c7.652-7.655 11.735-17.43 12.138-27.058l0.016-1.083h0.081v-284.116c0.016-16.237-13.153-29.39-29.387-29.39l-274.317-0.001c-16.237 0-29.396 13.153-29.396 29.39v41.719h-148.381c-16.237 0-29.396 13.156-29.396 29.39v382.095c0 16.231 13.159 29.396 29.396 29.396l175.538 0.013z" />
<glyph unicode="&#xe036;" d="M88.192 252.51c3.394 0.128 6.537-1.261 9.441-4.158 3.212-3.216 4.661-6.812 4.327-10.799-0.325-3.987-2.466-7.958-6.428-11.913l-9.057-9.057-20.258 20.258 7.674 7.674c5.169 5.166 9.94 7.839 14.301 7.995zM58.68 277.566c2.744 0.053 5.317-1.115 7.711-3.512 3.188-3.181 4.596-6.69 4.243-10.53-0.359-3.837-2.382-7.605-6.069-11.292l-6.875-6.875-18.21 18.207 7.721 7.721c4.124 4.118 7.945 6.213 11.479 6.281zM61.78 292.68c-0.759-0.031-1.536-0.106-2.326-0.219-6.322-0.905-12.578-4.449-18.763-10.64l-20.305-20.305 63.994-63.997 20.527 20.533c6.578 6.572 10.324 13.712 11.248 21.417 0.921 7.711-1.358 14.292-6.831 19.768-4.402 4.402-9.294 6.665-14.679 6.784-5.385 0.122-10.533-1.773-15.441-5.663l-0.181 0.181c2.498 4.752 3.437 9.497 2.81 14.23-0.621 4.733-2.75 8.91-6.378 12.538-3.803 3.806-8.358 5.591-13.675 5.373zM110.086 351.213l-34.497-34.494 63.994-64 35.927 35.931-8.976 8.966-25.3-25.3-18.922 18.922 21.997 21.997-8.966 8.966-22.004-21.997-18.119 18.12 23.877 23.877-9.011 9.012zM163.956 405.076l-47.348-47.341 9.013-9.013 18.341 18.341 54.978-54.984 10.624 10.618-54.978 54.978 18.385 18.385-9.015 9.016zM205.459 427.576c2.142-1.545 3.762-2.604 4.867-3.166l34.407-16.652-19.6-19.584-16.731 34.31c-0.656 1.314-1.698 2.95-3.122 4.914l0.179 0.178zM202.109 443.239l-11.96-11.96 40.032-87.955 11.604 11.601-10.761 21.829 25.172 25.166 22.047-10.533 11.642 11.645-87.776 40.207zM182.7 479.348h248.129l-430.829-430.829v248.135l182.7 182.694z" />
<glyph unicode="&#xe037;" d="M182.7 480l-182.7-183.346v-248.136l430.829 431.482h-248.129zM125.662 238.589l-67.812 10.536 39.174-39.171-12.788-12.791-60.066 60.066 13.147 13.147 65.561-9.906-37.732 37.739 12.788 12.788 60.066-60.066-12.338-12.342zM149.879 262.806l-60.066 60.066 42.505 42.505 11.258-11.258-29.718-29.718 12.697-12.697 29.087 29.087 11.255-11.255-29.087-29.087 13.599-13.599 29.718 29.718 11.255-11.255-42.503-42.507zM232.72 345.647l-13.596-13.596-77.268 42.864 14.317 14.317 53.944-32.868-31.969 54.843 9.996 9.996 54.753-32.062-32.962 53.854 14.411 14.408 42.958-77.178-13.599-13.596-51.781 30.708 30.796-51.69z" />
<glyph unicode="&#xe038;" d="M417.87 42.399h63.107l-31.554-31.55-31.553 31.55zM420.976 70.397c-6.281 0-11.376-5.092-11.376-11.376v-56.891c0-6.281 5.095-11.376 11.376-11.376h56.891c6.284 0 11.38 5.095 11.38 11.376v56.891c0 6.284-5.095 11.376-11.38 11.376h-56.891zM206.049 149.073h103.024v-103.024h-103.024v103.024zM74.927 149.073h103.024v-103.024h-103.024v103.024zM206.049 277.070h103.024v-103.024h-103.024v103.024zM74.927 277.070h103.024v-103.024h-103.024v103.024zM206.049 405.073h103.024v-103.024h-103.024v103.024zM74.927 405.073h103.024v-103.024h-103.024v103.024zM56.894 434.488c-6.284 0-11.38-5.092-11.38-11.383v-398.224c0-6.284 5.095-11.38 11.38-11.38h329.952l0.001 420.987h-329.953zM449.42 437.598l31.554-31.554h-63.107l31.553 31.554zM420.976 457.241c-6.281 0-11.376-5.095-11.376-11.376v-56.891c0-6.284 5.095-11.376 11.376-11.376h56.891c6.284 0 11.38 5.092 11.38 11.376v56.891c0 6.281-5.095 11.376-11.38 11.376h-56.891zM34.135 479.997h443.729c18.853 0 34.135-15.285 34.135-34.132v-443.735c0-18.847-15.282-34.129-34.135-34.129l-443.729-0.001c-18.85 0.003-34.135 15.285-34.135 34.132v443.733c0 18.85 15.285 34.132 34.135 34.132z" />
<glyph unicode="&#xe039;" d="M74.402 62.13v-63.11l-31.554 31.55 31.554 31.56zM102.4 59.020c0 6.284-5.095 11.376-11.376 11.376l-56.892 0.001c-6.281 0-11.376-5.092-11.376-11.376v-56.894c0-6.281 5.092-11.376 11.376-11.376h56.891c6.281 0 11.376 5.095 11.376 11.376l0.001 56.893zM181.073 273.951v-103.024h-103.024v103.024h103.024zM181.073 405.073v-103.024h-103.024v103.024h103.024zM309.073 273.951v-103.024h-103.021v103.024h103.021zM437.076 405.073v-103.024h-231.024v103.024h231.024zM466.491 423.109c0 6.281-5.095 11.38-11.383 11.38l-398.217-0.001c-6.288 0-11.376-5.098-11.376-11.38v-329.956h420.976v329.957zM469.601 30.573l-31.554-31.55v63.11l31.554-31.56zM489.244 59.020c0 6.284-5.095 11.376-11.38 11.376h-56.891c-6.281 0-11.376-5.092-11.376-11.376v-56.894c0-6.281 5.095-11.376 11.376-11.376h56.891c6.284 0 11.38 5.095 11.38 11.376v56.894zM512 445.865v-443.739c0-18.847-15.282-34.129-34.135-34.129h-443.733c-18.85 0.003-34.132 15.285-34.132 34.132v443.736c0 18.85 15.282 34.135 34.132 34.135h443.732c18.854 0 34.136-15.285 34.136-34.135z" />
<glyph unicode="&#xe03a;" d="M206.049 149.073h28.516l-0.437-3.303c-0.434-4.096-0.656-8.248-0.656-12.447 0-32.79 13.465-62.551 35.347-84.443l2.95-2.828h-65.72v103.021zM74.927 149.073h103.024v-103.021h-103.024v103.021zM359.555 178.157c-25.325 0.003-45.861-20.536-45.861-45.868 0-25.335 20.536-45.871 45.861-45.871 25.335 0 45.871 20.536 45.871 45.871 0 25.332-20.536 45.871-45.871 45.868v0zM359.555 224.031c50.669 0 91.742-41.072 91.742-91.742 0-16.624-4.421-32.215-12.157-45.665l-0.496-0.843 41.947-47.391c8.395-9.481 7.511-23.98-1.976-32.372l-8.607-7.621c-9.488-8.398-23.983-7.515-32.375 1.973l-42.065 47.522-0.306-0.137c-10.974-4.639-23.034-7.209-35.709-7.209-50.666 0-91.739 41.072-91.739 91.742s41.075 91.743 91.741 91.743v0zM206.049 277.073h103.028v-32.268l-3.98-1.733c-29.477-13.68-52.605-38.050-63.944-67.887l-0.41-1.136h-34.694v103.024zM74.927 277.073h103.024v-103.024h-103.024v103.024zM206.049 405.073h103.028v-103.024h-103.028v103.024zM74.927 405.073h103.024v-103.024h-103.024v103.024zM449.427 437.598l31.55-31.554h-63.104l31.554 31.554zM420.983 457.241c-6.284 0-11.376-5.092-11.376-11.38v-56.888c0-6.284 5.092-11.376 11.376-11.376h56.891c6.281 0 11.376 5.092 11.376 11.376v56.888c0 6.288-5.095 11.38-11.376 11.38h-56.891zM34.139 480h443.735c18.844 0 34.126-15.285 34.126-34.139v-390.903l-32.884 37.694 0.593 1.617c4.308 12.26 6.64 25.394 6.64 39.052 0 56.735-40.298 104.407-94.839 117.919l-4.67 1.036 0.001 182.212h-329.95c-6.281 0-11.376-5.095-11.376-11.38v-398.22c0-6.288 5.095-11.383 11.376-11.383h324.792l40.096-45.505h-387.64c-18.854 0-34.139 15.282-34.139 34.129v443.732c0 18.854 15.285 34.139 34.139 34.139z" />
<glyph unicode="&#xe03b;" d="M439.012 70.331l30.523-22.178-12.847-17.68-30.536 22.188 1.773 2.204c3.25 4.127 6.347 8.376 9.294 12.738l1.793 2.728zM72.991 70.331l1.795-2.729c2.944-4.361 6.044-8.61 9.288-12.738l1.78-2.204-30.539-22.188-12.844 17.68 30.52 22.179zM459.885 110.976l34.432-15.329-8.891-19.965-34.438 15.335 2.007 4.024c2.298 4.777 4.439 9.653 6.391 14.614l0.499 1.321zM52.121 110.976l0.496-1.321c1.961-4.961 4.096-9.834 6.397-14.614l2.001-4.024-34.438-15.335-8.888 19.965 34.432 15.329zM471.786 155.095l36.895-7.842-4.536-21.379-36.88 7.836 0.396 1.464c1.349 5.236 2.507 10.552 3.462 15.934l0.663 3.987zM40.214 155.095l0.656-3.987c0.971-5.382 2.126-10.699 3.475-15.934l0.39-1.464-36.87-7.836-4.542 21.379 36.891 7.842zM474.274 200.72h37.726v-21.86h-37.726l0.197 5.289c0.056 1.873 0.072 3.753 0.072 5.641s-0.031 3.768-0.072 5.641l-0.197 5.289zM0 200.72h37.732l-0.203-5.289c-0.041-1.873-0.066-3.756-0.066-5.641s0.028-3.768 0.069-5.641l0.203-5.289h-37.735v21.86zM504.133 253.705l4.549-21.379-36.895-7.842-0.659 3.987c-0.958 5.382-2.117 10.693-3.462 15.934l-0.396 1.458 36.863 7.842zM7.867 253.705l36.87-7.842-0.39-1.458c-1.349-5.242-2.504-10.552-3.475-15.934l-0.656-3.987-36.894 7.842 4.545 21.379zM485.426 303.9l8.891-19.968-34.432-15.329-0.5 1.321c-1.951 4.961-4.093 9.837-6.391 14.611l-2.007 4.030 34.439 15.335zM26.577 303.9l34.438-15.335-2.001-4.030c-2.301-4.77-4.433-9.65-6.397-14.611l-0.496-1.321-34.432 15.329 8.888 19.968zM256 320.912c72.423 0 131.128-58.705 131.128-131.122 0-72.414-58.708-131.122-131.128-131.122-72.411 0-131.122 58.708-131.122 131.122 0 28.288 8.96 54.484 24.192 75.904l0.306 0.412 55.605-76.541c8.111-11.158 23.73-13.634 34.885-5.526l22.010 15.981c11.152 8.111 13.634 23.73 5.52 34.894l-56.655 77.971 0.181 0.072c14.058 5.148 29.24 7.955 45.078 7.955zM456.688 349.1l12.847-17.68-30.523-22.175-1.792 2.729c-2.944 4.361-6.044 8.61-9.294 12.738l-1.773 2.204 30.535 22.184zM55.312 349.1l30.539-22.181-1.78-2.204c-3.244-4.127-6.341-8.376-9.288-12.738l-1.795-2.729-30.523 22.175 12.847 17.677zM148.814 360.451c4.009 0.137 8.005-1.658 10.546-5.142l92.204-126.907c4.052-5.582 2.819-13.393-2.766-17.445l-15.151-11.008c-5.579-4.052-13.396-2.813-17.445 2.766l-92.198 126.901c-4.059 5.579-2.819 13.39 2.76 17.445l15.154 11.011c2.088 1.517 4.498 2.298 6.896 2.379zM256 377.107c103.452 0 187.317-83.865 187.317-187.317s-83.865-187.32-187.317-187.32-187.317 83.868-187.317 187.32c0 46.879 17.224 89.731 45.677 122.583l0.765 0.868 20.811-28.65-0.284-0.359c-20.44-26.006-32.628-58.799-32.628-94.442 0-84.486 68.489-152.976 152.976-152.976 84.489 0 152.982 68.489 152.982 152.976s-68.492 152.976-152.982 152.976c-19.803 0-38.718-3.762-56.089-10.612l-2.444-0.99-20.652 28.422 2.095 0.977c23.514 10.625 49.614 16.544 77.090 16.544zM419.184 387.347l16.237-14.623-25.25-28.044-3.39 3.306c-3.799 3.615-7.727 7.099-11.77 10.437l-1.080 0.877 25.253 28.047zM92.819 387.347l25.26-28.048-1.093-0.877c-4.046-3.334-7.973-6.821-11.77-10.437l-3.381-3.306-25.26 28.044 16.244 14.624zM374.537 416.962l18.928-10.93-18.86-32.671-0.805 0.54c-4.439 2.841-8.976 5.529-13.621 8.048l-4.489 2.363 18.847 32.65zM137.463 416.962l18.847-32.649-4.477-2.363c-4.642-2.519-9.188-5.207-13.624-8.048l-0.812-0.54-18.86 32.671 18.926 10.929zM324.714 436.639l20.792-6.75-11.651-35.856-2.713 1.036c-5.017 1.839-10.121 3.493-15.316 4.967l-2.757 0.746 11.645 35.857zM187.286 436.639l11.648-35.856-2.76-0.746c-5.186-1.474-10.296-3.134-15.313-4.973l-2.71-1.030-11.654 35.856 20.789 6.749zM271.891 445.531l21.738-2.279-3.934-37.51-0.415 0.066c-5.42 0.83-10.908 1.461-16.462 1.883l-4.873 0.312 3.946 37.528zM240.106 445.531l3.949-37.529-4.87-0.312c-5.545-0.421-11.039-1.052-16.465-1.883l-0.403-0.066-3.943 37.51 21.732 2.28z" />
<glyph unicode="&#xe03c;" d="M256.006 86.637c-10.349 0-18.738-8.389-18.738-18.735s8.389-18.735 18.738-18.735c10.34 0 18.725 8.389 18.725 18.735s-8.388 18.735-18.725 18.735zM412.104 242.732c-10.349 0-18.738-8.389-18.738-18.732s8.389-18.732 18.738-18.732c10.34 0 18.725 8.392 18.725 18.732 0 10.343-8.388 18.732-18.725 18.732zM99.909 242.732c-10.346 0-18.735-8.389-18.735-18.732s8.389-18.732 18.735-18.732c10.336 0 18.725 8.389 18.725 18.732s-8.389 18.732-18.725 18.732zM386.482 307.877c-0.749-0.122-3.587-1.53-8.495-4.268l-110.62-61.69-1.383 1.776c-0.787 0.977-1.605 1.954-2.444 2.922-3.334 3.852-6.953 7.465-10.050 9.931l-27.804-24.114c1.502-2.563 3.603-5.504 5.969-8.439l1.567-1.879-2.466-1.52c-5.289-3.275-10.296-6.459-14.305-9.122l6.547-10.74c4.205 2.345 9.335 5.332 14.664 8.526l5.070 3.066 0.24-0.209c0.4-0.337 0.796-0.668 1.183-0.977l67.319-53.535c6.194-4.926 7.973-3.384 3.968 3.447l-41.725 71.199 105.207 69.826c6.009 3.996 8.52 5.96 7.558 5.8zM256.006 398.829c-10.349 0-18.738-8.385-18.738-18.731 0-10.343 8.389-18.732 18.738-18.732 10.337 0 18.726 8.389 18.726 18.732 0 10.346-8.389 18.731-18.726 18.731zM256.006 423.805c110.342 0 199.802-89.456 199.802-199.805s-89.46-199.802-199.802-199.802c-110.352 0-199.808 89.453-199.808 199.802 0 110.348 89.457 199.805 199.808 199.805zM256.006 445.659c-122.418 0-221.659-99.237-221.659-221.659 0-122.418 99.241-221.655 221.659-221.655s221.659 99.237 221.659 221.655c0 122.421-99.241 221.659-221.659 221.659zM256.006 480c141.384 0 255.994-114.616 255.994-256s-114.61-256-255.994-256-256.006 114.616-256.006 256 114.622 256 256.006 256z" />
<glyph unicode="&#xe03d;" d="M256 124.247c17.243 0 31.216-13.977 31.216-31.22 0-17.236-13.974-31.216-31.216-31.216s-31.22 13.98-31.22 31.216c0 17.243 13.977 31.22 31.22 31.22zM423.905 148.773l-31.504-3.312v-0.056c0-3.731-0.097-7.446-0.284-11.13l-0.119-1.898 31.401-3.3 0.228 3.575c0.212 4.227 0.318 8.479 0.318 12.756l-0.040 3.365zM84.105 153.975l-0.087-2.176c-0.056-2.123-0.075-4.258-0.075-6.397 0-2.142 0.022-4.271 0.075-6.397l0.131-3.44 31.451 3.306-0.037 0.952c-0.044 1.854-0.072 3.712-0.072 5.579l0.072 5.27-31.458 3.303zM388.552 249.188l-23.493-21.154 5.972-8.398 1.673-2.61 27.355 15.785-2.869 4.461c-2.223 3.294-4.53 6.534-6.909 9.719l-1.729 2.197zM120.382 250.505l-2.769-3.522c-2.379-3.178-4.68-6.419-6.909-9.712l-1.389-2.164 27.355-15.785 0.197 0.312c1.942 2.875 3.962 5.704 6.032 8.479l0.98 1.243-23.497 21.149zM201.197 305.864l-5.388-1.599c-3.877-1.211-7.721-2.51-11.517-3.899l-1.692-0.643 12.859-28.878 9.731 3.291 2.591 0.774-6.584 30.954zM306.454 305.936l-6.575-30.964 2.825-0.84 9.875-3.344 12.853 28.881-1.833 0.699c-3.796 1.389-7.633 2.688-11.517 3.896l-5.628 1.672zM256 334.979c36.446 0 71.877-8.429 101.804-24.311 104.245-55.299 107.37-170.474 107.37-170.474 0-21.523-26.384-26.874-50.963-26.874h-100.327l-0.35 0.887c-9.478 22.416-31.675 38.138-57.534 38.138-4.848 0-9.572-0.553-14.102-1.598l-1.374-0.343-0.24 0.437c-3.509 6.113-7.833 12.338-11.582 16.431l-65.124 71.123c-5.991 6.55-8.236 5.151-5.008-3.116l35.1-89.822c1.62-4.133 4.293-9.207 7.318-14.061 0.759-1.211 1.533-2.407 2.316-3.581l1.517-2.151-2.226-3.378c-1.564-2.572-2.944-5.27-4.133-8.076l-0.35-0.887-100.329 0.001c-20.789 0-45.471 1.233-51.787 15.438-1.146 2.582-0.731 116.464 94.639 174.739 32.921 20.114 73.39 31.478 115.365 31.478zM255.95 386.188c66.832 0 126.58-26.743 173.103-65.879 99.572-83.749 81.698-196.389 81.698-196.389 0-30.895-25.041-55.936-55.93-55.936h-140.35l0.181 0.453c2.448 6.7 3.79 13.924 3.79 21.473 0 2.151-0.109 4.286-0.325 6.378l-0.172 1.361h111.060c26.874 0 55.724 6.256 55.724 31.413 0 0 8.539 76.294-49.761 145.954-41.097 49.108-108.060 81.755-178.963 81.755-79.844 0-154.471-41.419-193.948-100.183-43.325-64.504-36.86-128.835-36.86-128.835 2.9-27.245 30.932-30.108 57.806-30.108h111.048l-0.169-1.361c-0.219-2.092-0.325-4.227-0.325-6.378 0-7.549 1.342-14.773 3.796-21.473l0.175-0.453h-140.449c-30.889 0-55.933 25.041-55.933 55.936 0 0-14.764 91.667 61.58 176.927 46.358 51.763 116.109 85.345 193.224 85.345z" />
<glyph unicode="&#xe03e;" d="M362.206 277.916l-16.884-24.005 4.015-1.739c4.155-1.858 8.236-3.834 12.204-5.922l0.727-0.396 16.896 24.023-16.958 8.039zM149.801 277.916l-16.955-8.036 16.895-24.026 0.731 0.393c3.968 2.092 8.036 4.068 12.204 5.922l4.012 1.739-16.887 24.008zM317.574 292.389l-10.44-26.371 2.479-0.546c4.645-1.083 9.213-2.304 13.708-3.659l2.432-0.756 10.44 26.362-18.619 4.97zM194.435 292.389l-18.616-4.97 10.43-26.362 2.426 0.756c4.505 1.355 9.082 2.576 13.727 3.659l2.469 0.546-10.436 26.371zM270.239 298.927l-3.534-27.601 4.361-0.225c4.973-0.312 9.893-0.774 14.757-1.386l0.359-0.047 3.534 27.579-19.477 1.68zM241.761 298.927l-19.468-1.68 3.534-27.579 0.359 0.047c4.861 0.612 9.784 1.077 14.754 1.386l4.361 0.225-3.54 27.601zM256.006 334.829c57.182 0 112.512-7.858 164.933-22.54l5.014-1.474-68.908-197.644-3.512 0.94c-25.325 6.437-51.656 10.43-78.692 11.698l-0.122 0.003 0.013 0.48c0 6.444-0.35 12.891-1.049 17.808l-15.151 106.861c-1.399 9.834-3.662 9.834-5.058 0l-15.151-106.861c-0.699-4.917-1.046-11.364-1.046-17.808l0.003-0.478-0.112-0.003c-27.042-1.268-53.37-5.264-78.692-11.698l-3.512-0.94-68.911 197.645 5.017 1.474c52.421 14.679 107.755 22.537 164.936 22.537zM256.006 356.683c-68.464 0-134.7-9.41-197.451-26.986l-6.007-1.758 82.491-236.619 4.208 1.124c37.32 9.488 76.435 14.53 116.758 14.53 40.311 0 79.432-5.042 116.755-14.53l4.212-1.124 82.488 236.619-6 1.758c-62.757 17.576-128.992 26.986-197.454 26.986zM256.006 390.946c86.141 0 169.478-11.835 248.445-33.948l7.549-2.219-103.789-297.722-5.289 1.417c-46.967 11.935-96.19 18.282-146.916 18.282-50.729 0-99.956-6.347-146.916-18.282l-5.289-1.417-103.801 297.722 7.558 2.22c78.961 22.112 162.304 33.947 248.448 33.947z" />
<glyph unicode="&#xe03f;" d="M227.899 339.512h56.201v-157.977l3.5-1.377c29.134-12.322 49.573-41.172 49.573-74.793 0-44.828-36.343-81.168-81.174-81.168s-81.173 36.341-81.173 81.169c0 33.623 20.446 62.47 49.583 74.793l3.49 1.377v157.976zM256 445.659c-27.589 0-49.948-22.366-49.948-49.951v-200.236l-3.472-1.995c-29.739-18.073-49.604-50.769-49.604-88.111 0-56.901 46.124-103.024 103.024-103.024 56.894 0 103.018 46.124 103.018 103.024 0 37.342-19.859 70.038-49.592 88.111l-3.478 1.995v200.235c0 27.586-22.359 49.952-49.948 49.952zM256 480c46.555 0 84.293-37.741 84.293-84.293v-181.919l3.084-2.42c30.533-25.197 49.989-63.328 49.989-106.002 0-75.87-61.502-137.366-137.366-137.366s-137.366 61.496-137.366 137.366c0 42.674 19.456 80.805 49.989 106l3.084 2.422v181.919c0 46.552 37.738 84.293 84.293 84.293z" />
<glyph unicode="&#xe040;" d="M439.012 70.325l30.523-22.178-12.847-17.68-30.536 22.181 1.773 2.213c3.25 4.127 6.347 8.376 9.294 12.731l1.793 2.733zM72.991 70.325l1.795-2.729c2.944-4.358 6.044-8.604 9.294-12.731l1.776-2.213-30.539-22.181-12.847 17.68 30.521 22.174zM459.885 110.97l34.432-15.329-8.891-19.962-34.438 15.329 2.007 4.030c2.298 4.777 4.439 9.653 6.391 14.611l0.499 1.321zM52.121 110.97l0.503-1.321c1.957-4.958 4.090-9.831 6.391-14.611l2.001-4.030-34.438-15.329-8.888 19.962 34.431 15.329zM471.786 155.089l36.895-7.839-4.536-21.376-36.88 7.836 0.396 1.461c1.349 5.239 2.507 10.549 3.462 15.934l0.663 3.984zM40.22 155.089l0.652-3.984c0.962-5.385 2.123-10.696 3.468-15.934l0.39-1.461-36.87-7.836-4.542 21.376 36.902 7.839zM474.274 200.713h37.726v-21.854h-37.726l0.197 5.285c0.056 1.873 0.072 3.756 0.072 5.638 0 1.886-0.031 3.768-0.072 5.644l-0.197 5.287zM0 200.713h37.732l-0.197-5.285c-0.047-1.876-0.072-3.756-0.072-5.645 0-1.883 0.028-3.765 0.075-5.638l0.197-5.285h-37.735v21.853zM504.145 253.699l4.536-21.379-36.895-7.836-0.659 3.987c-0.958 5.382-2.117 10.693-3.462 15.928l-0.396 1.461 36.876 7.839zM7.867 253.699l36.87-7.836-0.39-1.461c-1.349-5.236-2.51-10.546-3.468-15.928l-0.652-3.987-36.898 7.836 4.538 21.376zM257.561 255.344c37.073 0 67.122-30.049 67.122-67.119 0-37.067-30.049-67.122-67.122-67.122s-67.122 30.055-67.122 67.122c0.003 37.071 30.052 67.119 67.122 67.119zM409.563 297.069l1.767-2.554c20.195-29.892 31.987-65.935 31.987-104.732 0-103.452-83.865-187.314-187.314-187.314-103.452 0-187.32 83.862-187.32 187.314 0 38.796 11.795 74.839 31.997 104.732l0.937 1.355 76.053-68.473-0.306-0.593c-5.625-11.673-8.779-24.761-8.779-38.578 0-49.143 39.836-88.976 88.976-88.976 49.146 0 88.979 39.833 88.979 88.976 0 15.354-3.896 29.802-10.743 42.409v0.009l73.766 66.425zM485.426 303.891l8.891-19.959-34.432-15.332-0.5 1.314c-1.951 4.967-4.093 9.837-6.391 14.617l-2.007 4.030 34.439 15.33zM26.577 303.891l34.438-15.329-2.001-4.030c-2.301-4.777-4.433-9.647-6.391-14.617l-0.503-1.314-34.431 15.331 8.888 19.959zM456.688 349.1l12.847-17.68-30.523-22.175-1.792 2.729c-2.944 4.358-6.044 8.604-9.294 12.734l-1.773 2.21 30.535 22.182zM55.315 349.1l30.539-22.185-1.776-2.21c-3.25-4.127-6.347-8.376-9.294-12.734l-1.795-2.729-30.523 22.175 12.849 17.683zM254.364 370.863c42.003 0 80.431-15.363 109.943-40.782l4.714-4.227 1.477-1.367c2.017-1.92 3.98-3.884 5.897-5.897l1.202-1.28 0.084 0.009 3.091-3.431c4.611-5.126 4.196-13.022-0.927-17.636l-55.184-49.62-1.233 1.417c-9.572 10.537-21.641 18.766-35.275 23.755l-0.684 0.228 41.934 37.766-1.733 1.205c-20.933 14.136-46.158 22.391-73.307 22.391-27.152 0-52.386-8.258-73.31-22.391l-1.68-1.161 43.878-39.512-0.315-0.119c-13.306-5.629-24.966-14.405-34.029-25.388l-1.111-1.424-58.756 52.852c-5.126 4.614-5.538 12.51-0.921 17.636l4.498 4.998 2.532 2.597c0.955 0.949 1.926 1.892 2.897 2.825l2.251 2.095 0.902 1.002c0.578 0.64 2.813 2.323 2.813 2.323l0.022 0.022c29.568 25.613 68.134 41.114 110.33 41.114zM419.184 387.347l16.237-14.626-25.25-28.048-3.39 3.303c-3.799 3.621-7.727 7.099-11.77 10.443l-1.080 0.874 25.253 28.054zM92.825 387.347l25.257-28.051-1.086-0.874c-4.046-3.337-7.973-6.821-11.77-10.443l-3.387-3.303-25.253 28.048 16.239 14.623zM374.537 416.955l18.928-10.93-18.86-32.665-0.805 0.534c-4.439 2.841-8.976 5.529-13.621 8.055l-4.489 2.36 18.847 32.646zM137.469 416.955l18.847-32.646-4.483-2.36c-4.642-2.526-9.185-5.214-13.618-8.055l-0.812-0.534-18.86 32.665 18.926 10.93zM324.714 436.636l20.792-6.753-11.651-35.852-2.713 1.030c-5.017 1.839-10.121 3.497-15.316 4.97l-2.757 0.746 11.645 35.859zM187.286 436.636l11.654-35.856-2.76-0.746c-5.192-1.474-10.296-3.131-15.319-4.97l-2.71-1.030-11.648 35.852 20.783 6.75zM271.891 445.531l21.738-2.285-3.946-37.504-0.403 0.066c-5.42 0.83-10.908 1.455-16.462 1.883l-4.873 0.306 3.946 37.534zM240.112 445.531l3.943-37.535-4.87-0.306c-5.545-0.425-11.039-1.052-16.465-1.883l-0.403-0.066-3.943 37.504 21.738 2.286z" />
<glyph unicode="&#xe041;" d="M374.628 27.317v-37.467h115.515v37.467h-115.515zM365.265 77.268h134.247c6.893 0 12.488-5.595 12.488-12.488v-84.293c0-6.9-5.595-12.485-12.488-12.485h-134.247c-6.9 0-12.488 5.585-12.488 12.485v84.293c0 6.894 5.589 12.488 12.488 12.488zM374.628 161.555v-37.457h115.515v37.457h-115.515zM365.265 211.509h134.247c6.893 0 12.488-5.588 12.488-12.488v-84.286c0-6.9-5.595-12.488-12.488-12.488h-134.247c-6.9 0-12.488 5.588-12.488 12.488v84.286c0 6.9 5.589 12.488 12.488 12.488zM374.628 295.802v-37.457h115.515v37.457h-115.515zM365.265 345.75h134.247c6.893 0 12.488-5.582 12.488-12.482v-84.293c0-6.893-5.595-12.488-12.488-12.488h-134.247c-6.9 0-12.488 5.595-12.488 12.488v84.293c0 6.9 5.589 12.482 12.488 12.482zM43.704 386.341v-374.634h237.268v374.634h-237.268zM374.628 430.049v-37.463h115.515v37.463h-115.515zM365.265 479.997h134.247c6.893 0 12.488-5.588 12.488-12.488v-84.293c0-6.893-5.595-12.488-12.488-12.488h-134.247c-6.9 0-12.488 5.595-12.488 12.488v84.293c0 6.9 5.589 12.488 12.488 12.488zM24.972 479.997h274.732c13.79 0 24.976-11.183 24.976-24.969v-462.052c0-13.793-11.186-24.972-24.976-24.972h-274.732c-13.792-0.001-24.972 11.179-24.972 24.972v462.052c0 13.786 11.18 24.969 24.972 24.969z" />
<glyph unicode="&#xe042;" d="M374.64 27.323v-37.463h115.509v37.463h-115.509zM365.271 77.268h134.241c6.9 0 12.488-5.588 12.488-12.488v-84.29c0-6.893-5.588-12.491-12.488-12.491h-134.241c-6.893 0-12.491 5.598-12.491 12.491v84.29c0 6.9 5.598 12.488 12.491 12.488zM71.811 86.631h177.945v-18.725h-177.945v18.725zM71.811 120.979h146.732v-18.738h-146.732v18.738zM374.64 161.564v-37.466h115.509v37.467l-115.509-0.001zM365.271 211.515h134.241c6.9 0 12.488-5.595 12.488-12.488v-84.299c0-6.893-5.588-12.488-12.488-12.488h-134.241c-6.893 0-12.491 5.595-12.491 12.488v84.3c0 6.893 5.598 12.487 12.491 12.487zM374.64 295.805v-37.467h115.509v37.467h-115.509zM74.93 339.509h115.515v-199.805h-115.515v199.805zM365.271 345.759h134.241c6.9 0 12.488-5.598 12.488-12.491v-84.293c0-6.9-5.588-12.488-12.488-12.488h-134.241c-6.893 0-12.491 5.588-12.491 12.488v84.293c0 6.894 5.598 12.491 12.491 12.491zM43.714 386.341v-374.637h237.268v374.637h-237.268zM374.64 430.046v-37.463h115.509v37.463h-115.509zM365.271 480h134.241c6.9 0 12.488-5.595 12.488-12.488v-84.29c0-6.903-5.588-12.488-12.488-12.488h-134.241c-6.893 0-12.491 5.585-12.491 12.488v84.29c0 6.893 5.598 12.488 12.491 12.488zM24.976 480h274.732c13.796 0 24.976-11.18 24.976-24.979v-462.043c0-13.799-11.18-24.979-24.976-24.979l-274.732 0.001c-13.787 0-24.976 11.18-24.976 24.979v462.042c0 13.799 11.189 24.979 24.976 24.979z" />
</font>
</defs>
</svg>
